{
    "asset" : {
        "copyright" : "K-ro",
        "generator" : "Khronos glTF Blender I/O v3.3.36",
        "version" : "2.0"
    },
    "scene" : 0,
    "scenes" : [
        {
            "name" : "Scene",
            "nodes" : [
                0,
                1,
                2
            ]
        }
    ],
    "nodes" : [
        {
            "mesh" : 0,
            "name" : "Magic Stone",
            "rotation" : [
                0.004337931517511606,
                -0.9238693714141846,
                -0.012336499989032745,
                0.38248464465141296
            ],
            "scale" : [
                0.7670323252677917,
                0.7670323252677917,
                0.7670323252677917
            ],
            "translation" : [
                0.02989109233021736,
                0.07790080457925797,
                -0.05296066030859947
            ]
        },
        {
            "mesh" : 1,
            "name" : "Gauntlet",
            "rotation" : [
                0.5515530705451965,
                0.41342443227767944,
                -0.5496309995651245,
                0.47199079394340515
            ],
            "scale" : [
                0.9748661518096924,
                0.9375584125518799,
                0.9361439347267151
            ],
            "translation" : [
                0.06484661996364594,
                0.05075230449438095,
                -0.11468807607889175
            ]
        },
        {
            "mesh" : 2,
            "name" : "Wrist Leather Strip",
            "rotation" : [
                0.5515530705451965,
                0.41342443227767944,
                -0.5496309995651245,
                0.47199079394340515
            ],
            "scale" : [
                0.9748661518096924,
                0.9375584125518799,
                0.9361439347267151
            ],
            "translation" : [
                0.06937866657972336,
                0.04673110693693161,
                -0.11468807607889175
            ]
        }
    ],
    "meshes" : [
        {
            "name" : "Magic Stone",
            "primitives" : [
                {
                    "attributes" : {
                        "POSITION" : 0,
                        "NORMAL" : 1,
                        "TEXCOORD_0" : 2
                    },
                    "indices" : 3
                }
            ]
        },
        {
            "name" : "Gauntlet",
            "primitives" : [
                {
                    "attributes" : {
                        "POSITION" : 4,
                        "NORMAL" : 5,
                        "TEXCOORD_0" : 6
                    },
                    "indices" : 7
                }
            ]
        },
        {
            "name" : "Wrist Leather Strip",
            "primitives" : [
                {
                    "attributes" : {
                        "POSITION" : 8,
                        "NORMAL" : 9,
                        "TEXCOORD_0" : 10
                    },
                    "indices" : 11
                }
            ]
        }
    ],
    "accessors" : [
        {
            "bufferView" : 0,
            "componentType" : 5126,
            "count" : 296,
            "max" : [
                0.05745210498571396,
                0.011560153216123581,
                0.06650866568088531
            ],
            "min" : [
                -0.06615746021270752,
                -0.006229790393263102,
                -0.057648252695798874
            ],
            "type" : "VEC3"
        },
        {
            "bufferView" : 1,
            "componentType" : 5126,
            "count" : 296,
            "type" : "VEC3"
        },
        {
            "bufferView" : 2,
            "componentType" : 5126,
            "count" : 296,
            "type" : "VEC2"
        },
        {
            "bufferView" : 3,
            "componentType" : 5123,
            "count" : 642,
            "type" : "SCALAR"
        },
        {
            "bufferView" : 4,
            "componentType" : 5126,
            "count" : 1692,
            "max" : [
                0.01108047179877758,
                0.0325920470058918,
                0.060598552227020264
            ],
            "min" : [
                -0.14782394468784332,
                -0.08049421012401581,
                -0.031595829874277115
            ],
            "type" : "VEC3"
        },
        {
            "bufferView" : 5,
            "componentType" : 5126,
            "count" : 1692,
            "type" : "VEC3"
        },
        {
            "bufferView" : 6,
            "componentType" : 5126,
            "count" : 1692,
            "type" : "VEC2"
        },
        {
            "bufferView" : 7,
            "componentType" : 5123,
            "count" : 4098,
            "type" : "SCALAR"
        },
        {
            "bufferView" : 8,
            "componentType" : 5126,
            "count" : 524,
            "max" : [
                0.014544320292770863,
                0.018327075988054276,
                0.03634802997112274
            ],
            "min" : [
                -0.013778305612504482,
                -0.038927990943193436,
                -0.022883377969264984
            ],
            "type" : "VEC3"
        },
        {
            "bufferView" : 9,
            "componentType" : 5126,
            "count" : 524,
            "type" : "VEC3"
        },
        {
            "bufferView" : 10,
            "componentType" : 5126,
            "count" : 524,
            "type" : "VEC2"
        },
        {
            "bufferView" : 11,
            "componentType" : 5123,
            "count" : 1512,
            "type" : "SCALAR"
        }
    ],
    "bufferViews" : [
        {
            "buffer" : 0,
            "byteLength" : 3552,
            "byteOffset" : 0,
            "target" : 34962
        },
        {
            "buffer" : 0,
            "byteLength" : 3552,
            "byteOffset" : 3552,
            "target" : 34962
        },
        {
            "buffer" : 0,
            "byteLength" : 2368,
            "byteOffset" : 7104,
            "target" : 34962
        },
        {
            "buffer" : 0,
            "byteLength" : 1284,
            "byteOffset" : 9472,
            "target" : 34963
        },
        {
            "buffer" : 0,
            "byteLength" : 20304,
            "byteOffset" : 10756,
            "target" : 34962
        },
        {
            "buffer" : 0,
            "byteLength" : 20304,
            "byteOffset" : 31060,
            "target" : 34962
        },
        {
            "buffer" : 0,
            "byteLength" : 13536,
            "byteOffset" : 51364,
            "target" : 34962
        },
        {
            "buffer" : 0,
            "byteLength" : 8196,
            "byteOffset" : 64900,
            "target" : 34963
        },
        {
            "buffer" : 0,
            "byteLength" : 6288,
            "byteOffset" : 73096,
            "target" : 34962
        },
        {
            "buffer" : 0,
            "byteLength" : 6288,
            "byteOffset" : 79384,
            "target" : 34962
        },
        {
            "buffer" : 0,
            "byteLength" : 4192,
            "byteOffset" : 85672,
            "target" : 34962
        },
        {
            "buffer" : 0,
            "byteLength" : 3024,
            "byteOffset" : 89864,
            "target" : 34963
        }
    ],
    "buffers" : [
        {
            "byteLength" : 92888,
            "uri" : "data:application/octet-stream;base64,"
        }
    ]
}
