{
    "asset" : {
        "copyright" : "K-ro",
        "generator" : "Khronos glTF Blender I/O v3.3.36",
        "version" : "2.0"
    },
    "scene" : 0,
    "scenes" : [
        {
            "name" : "Scene",
            "nodes" : [
                11
            ]
        }
    ],
    "nodes" : [
        {
            "mesh" : 1,
            "name" : "Magic Stone",
            "rotation" : [
                -0.2712893784046173,
                0.2699049711227417,
                0.654948890209198,
                0.6516097784042358
            ],
            "scale" : [
                0.9999999403953552,
                0.9999998807907104,
                0.9999999403953552
            ],
            "translation" : [
                -0.011656075716018677,
                0.09655614197254181,
                0.032891109585762024
            ]
        },
        {
            "children" : [
                0
            ],
            "name" : "Cover_Front",
            "rotation" : [
                4.6380347384911147e-07,
                7.122446277207928e-07,
                -0.7085986733436584,
                0.7056117653846741
            ],
            "scale" : [
                0.9999999403953552,
                0.9999999403953552,
                1
            ],
            "translation" : [
                -8.366962678252321e-11,
                0.060934219509363174,
                -3.0531133177191805e-16
            ]
        },
        {
            "children" : [
                1
            ],
            "name" : "Cover_Middle",
            "rotation" : [
                -0.05071526765823364,
                0.05069183185696602,
                -0.7054476737976074,
                0.7051254510879517
            ],
            "scale" : [
                0.9999999403953552,
                0.9999999403953552,
                0.9999998807907104
            ],
            "translation" : [
                4.435659617385568e-10,
                0.19889488816261292,
                2.333555570999124e-11
            ]
        },
        {
            "children" : [
                2
            ],
            "name" : "Cover_back",
            "rotation" : [
                0.050692666321992874,
                -0.05071449652314186,
                0.7051346302032471,
                0.7054385542869568
            ],
            "scale" : [
                1,
                1.0000001192092896,
                1
            ],
            "translation" : [
                0.1978859156370163,
                -0.0050183795392513275,
                0
            ]
        },
        {
            "mesh" : 0,
            "name" : "Cover",
            "skin" : 0
        },
        {
            "name" : "Empty",
            "scale" : [
                0.10185223817825317,
                0.10185223817825317,
                0.10185223817825317
            ]
        },
        {
            "name" : "Pages_Front",
            "rotation" : [
                4.638034170056926e-07,
                7.122445708773739e-07,
                -0.7085986733436584,
                0.7056117653846741
            ],
            "scale" : [
                0.9999999403953552,
                0.9999999403953552,
                1
            ],
            "translation" : [
                1.2736810738045445e-11,
                0.060934219509363174,
                6.245004513516506e-17
            ]
        },
        {
            "children" : [
                6
            ],
            "name" : "Pages_Middle",
            "rotation" : [
                -0.05071526765823364,
                0.05069183185696602,
                -0.7054476737976074,
                0.7051254510879517
            ],
            "scale" : [
                0.9999999403953552,
                0.9999999403953552,
                0.9999998807907104
            ],
            "translation" : [
                2.9222391173533424e-10,
                0.19889488816261292,
                5.650724332895152e-11
            ]
        },
        {
            "children" : [
                7
            ],
            "name" : "Pages_back",
            "rotation" : [
                0.050692666321992874,
                -0.05071449652314186,
                0.7051346302032471,
                0.7054385542869568
            ],
            "scale" : [
                1,
                1.0000001192092896,
                1
            ],
            "translation" : [
                0.19881665706634521,
                -0.0050183795392513275,
                0
            ]
        },
        {
            "children" : [
                5
            ],
            "mesh" : 2,
            "name" : "Pages",
            "skin" : 1
        },
        {
            "children" : [
                9,
                8
            ],
            "name" : "Pages_Armature"
        },
        {
            "children" : [
                4,
                10,
                3
            ],
            "name" : "Book_Armature"
        }
    ],
    "animations" : [
        {
            "channels" : [
                {
                    "sampler" : 0,
                    "target" : {
                        "node" : 3,
                        "path" : "translation"
                    }
                },
                {
                    "sampler" : 1,
                    "target" : {
                        "node" : 3,
                        "path" : "rotation"
                    }
                },
                {
                    "sampler" : 2,
                    "target" : {
                        "node" : 3,
                        "path" : "scale"
                    }
                },
                {
                    "sampler" : 3,
                    "target" : {
                        "node" : 2,
                        "path" : "translation"
                    }
                },
                {
                    "sampler" : 4,
                    "target" : {
                        "node" : 2,
                        "path" : "rotation"
                    }
                },
                {
                    "sampler" : 5,
                    "target" : {
                        "node" : 2,
                        "path" : "scale"
                    }
                },
                {
                    "sampler" : 6,
                    "target" : {
                        "node" : 1,
                        "path" : "translation"
                    }
                },
                {
                    "sampler" : 7,
                    "target" : {
                        "node" : 1,
                        "path" : "rotation"
                    }
                },
                {
                    "sampler" : 8,
                    "target" : {
                        "node" : 1,
                        "path" : "scale"
                    }
                },
                {
                    "sampler" : 9,
                    "target" : {
                        "node" : 11,
                        "path" : "translation"
                    }
                },
                {
                    "sampler" : 10,
                    "target" : {
                        "node" : 11,
                        "path" : "rotation"
                    }
                }
            ],
            "name" : "CoverOpeningAction",
            "samplers" : [
                {
                    "input" : 18,
                    "interpolation" : "LINEAR",
                    "output" : 19
                },
                {
                    "input" : 18,
                    "interpolation" : "LINEAR",
                    "output" : 20
                },
                {
                    "input" : 18,
                    "interpolation" : "LINEAR",
                    "output" : 21
                },
                {
                    "input" : 18,
                    "interpolation" : "LINEAR",
                    "output" : 22
                },
                {
                    "input" : 18,
                    "interpolation" : "LINEAR",
                    "output" : 23
                },
                {
                    "input" : 18,
                    "interpolation" : "LINEAR",
                    "output" : 24
                },
                {
                    "input" : 18,
                    "interpolation" : "LINEAR",
                    "output" : 25
                },
                {
                    "input" : 18,
                    "interpolation" : "LINEAR",
                    "output" : 26
                },
                {
                    "input" : 18,
                    "interpolation" : "LINEAR",
                    "output" : 27
                },
                {
                    "input" : 28,
                    "interpolation" : "STEP",
                    "output" : 29
                },
                {
                    "input" : 28,
                    "interpolation" : "STEP",
                    "output" : 30
                }
            ]
        },
        {
            "channels" : [
                {
                    "sampler" : 0,
                    "target" : {
                        "node" : 4,
                        "path" : "translation"
                    }
                },
                {
                    "sampler" : 1,
                    "target" : {
                        "node" : 4,
                        "path" : "rotation"
                    }
                },
                {
                    "sampler" : 2,
                    "target" : {
                        "node" : 4,
                        "path" : "scale"
                    }
                }
            ],
            "name" : "PagesOpeningAction",
            "samplers" : [
                {
                    "input" : 28,
                    "interpolation" : "STEP",
                    "output" : 31
                },
                {
                    "input" : 28,
                    "interpolation" : "STEP",
                    "output" : 32
                },
                {
                    "input" : 28,
                    "interpolation" : "STEP",
                    "output" : 33
                }
            ]
        },
        {
            "channels" : [
                {
                    "sampler" : 0,
                    "target" : {
                        "node" : 8,
                        "path" : "translation"
                    }
                },
                {
                    "sampler" : 1,
                    "target" : {
                        "node" : 8,
                        "path" : "rotation"
                    }
                },
                {
                    "sampler" : 2,
                    "target" : {
                        "node" : 8,
                        "path" : "scale"
                    }
                },
                {
                    "sampler" : 3,
                    "target" : {
                        "node" : 7,
                        "path" : "translation"
                    }
                },
                {
                    "sampler" : 4,
                    "target" : {
                        "node" : 7,
                        "path" : "rotation"
                    }
                },
                {
                    "sampler" : 5,
                    "target" : {
                        "node" : 7,
                        "path" : "scale"
                    }
                },
                {
                    "sampler" : 6,
                    "target" : {
                        "node" : 6,
                        "path" : "translation"
                    }
                },
                {
                    "sampler" : 7,
                    "target" : {
                        "node" : 6,
                        "path" : "rotation"
                    }
                },
                {
                    "sampler" : 8,
                    "target" : {
                        "node" : 6,
                        "path" : "scale"
                    }
                },
                {
                    "sampler" : 9,
                    "target" : {
                        "node" : 10,
                        "path" : "translation"
                    }
                },
                {
                    "sampler" : 10,
                    "target" : {
                        "node" : 10,
                        "path" : "rotation"
                    }
                },
                {
                    "sampler" : 11,
                    "target" : {
                        "node" : 10,
                        "path" : "scale"
                    }
                }
            ],
            "name" : "PagesOpeningAction",
            "samplers" : [
                {
                    "input" : 18,
                    "interpolation" : "LINEAR",
                    "output" : 34
                },
                {
                    "input" : 18,
                    "interpolation" : "LINEAR",
                    "output" : 35
                },
                {
                    "input" : 18,
                    "interpolation" : "LINEAR",
                    "output" : 36
                },
                {
                    "input" : 18,
                    "interpolation" : "LINEAR",
                    "output" : 37
                },
                {
                    "input" : 18,
                    "interpolation" : "LINEAR",
                    "output" : 38
                },
                {
                    "input" : 18,
                    "interpolation" : "LINEAR",
                    "output" : 39
                },
                {
                    "input" : 18,
                    "interpolation" : "LINEAR",
                    "output" : 40
                },
                {
                    "input" : 18,
                    "interpolation" : "LINEAR",
                    "output" : 41
                },
                {
                    "input" : 18,
                    "interpolation" : "LINEAR",
                    "output" : 42
                },
                {
                    "input" : 28,
                    "interpolation" : "STEP",
                    "output" : 43
                },
                {
                    "input" : 28,
                    "interpolation" : "STEP",
                    "output" : 44
                },
                {
                    "input" : 28,
                    "interpolation" : "STEP",
                    "output" : 45
                }
            ]
        },
        {
            "channels" : [
                {
                    "sampler" : 0,
                    "target" : {
                        "node" : 9,
                        "path" : "translation"
                    }
                },
                {
                    "sampler" : 1,
                    "target" : {
                        "node" : 9,
                        "path" : "rotation"
                    }
                }
            ],
            "name" : "CoverOpeningAction",
            "samplers" : [
                {
                    "input" : 28,
                    "interpolation" : "STEP",
                    "output" : 46
                },
                {
                    "input" : 28,
                    "interpolation" : "STEP",
                    "output" : 47
                }
            ]
        },
        {
            "channels" : [
                {
                    "sampler" : 0,
                    "target" : {
                        "node" : 9,
                        "path" : "translation"
                    }
                }
            ],
            "name" : "EmptyAction",
            "samplers" : [
                {
                    "input" : 18,
                    "interpolation" : "LINEAR",
                    "output" : 48
                }
            ]
        },
        {
            "channels" : [
                {
                    "sampler" : 0,
                    "target" : {
                        "node" : 9,
                        "path" : "weights"
                    }
                }
            ],
            "name" : "KeyAction",
            "samplers" : [
                {
                    "input" : 18,
                    "interpolation" : "LINEAR",
                    "output" : 49
                }
            ]
        },
        {
            "channels" : [
                {
                    "sampler" : 0,
                    "target" : {
                        "node" : 9,
                        "path" : "translation"
                    }
                },
                {
                    "sampler" : 1,
                    "target" : {
                        "node" : 9,
                        "path" : "rotation"
                    }
                },
                {
                    "sampler" : 2,
                    "target" : {
                        "node" : 9,
                        "path" : "scale"
                    }
                }
            ],
            "name" : "PagesOpeningAction",
            "samplers" : [
                {
                    "input" : 28,
                    "interpolation" : "STEP",
                    "output" : 50
                },
                {
                    "input" : 28,
                    "interpolation" : "STEP",
                    "output" : 51
                },
                {
                    "input" : 28,
                    "interpolation" : "STEP",
                    "output" : 52
                }
            ]
        },
        {
            "channels" : [
                {
                    "sampler" : 0,
                    "target" : {
                        "node" : 5,
                        "path" : "translation"
                    }
                }
            ],
            "name" : "EmptyAction",
            "samplers" : [
                {
                    "input" : 18,
                    "interpolation" : "LINEAR",
                    "output" : 53
                }
            ]
        },
        {
            "channels" : [
                {
                    "sampler" : 0,
                    "target" : {
                        "node" : 0,
                        "path" : "translation"
                    }
                },
                {
                    "sampler" : 1,
                    "target" : {
                        "node" : 0,
                        "path" : "rotation"
                    }
                },
                {
                    "sampler" : 2,
                    "target" : {
                        "node" : 0,
                        "path" : "scale"
                    }
                }
            ],
            "name" : "Magic Stone",
            "samplers" : [
                {
                    "input" : 54,
                    "interpolation" : "LINEAR",
                    "output" : 55
                },
                {
                    "input" : 54,
                    "interpolation" : "LINEAR",
                    "output" : 56
                },
                {
                    "input" : 54,
                    "interpolation" : "LINEAR",
                    "output" : 57
                }
            ]
        }
    ],
    "meshes" : [
        {
            "name" : "Cover",
            "primitives" : [
                {
                    "attributes" : {
                        "POSITION" : 0,
                        "NORMAL" : 1,
                        "TEXCOORD_0" : 2,
                        "JOINTS_0" : 3,
                        "WEIGHTS_0" : 4
                    },
                    "indices" : 5
                }
            ]
        },
        {
            "name" : "Magic Stone",
            "primitives" : [
                {
                    "attributes" : {
                        "POSITION" : 7,
                        "NORMAL" : 8,
                        "TEXCOORD_0" : 9
                    },
                    "indices" : 10
                }
            ]
        },
        {
            "extras" : {
                "targetNames" : [
                    "Open"
                ]
            },
            "name" : "Pages",
            "primitives" : [
                {
                    "attributes" : {
                        "POSITION" : 11,
                        "NORMAL" : 12,
                        "TEXCOORD_0" : 13,
                        "JOINTS_0" : 14,
                        "WEIGHTS_0" : 15
                    },
                    "indices" : 16
                }
            ],
            "weights" : [
                0
            ]
        }
    ],
    "skins" : [
        {
            "inverseBindMatrices" : 6,
            "joints" : [
                3,
                2,
                1
            ],
            "name" : "Book_Armature"
        },
        {
            "inverseBindMatrices" : 17,
            "joints" : [
                8,
                7,
                6
            ],
            "name" : "Pages_Armature"
        }
    ],
    "accessors" : [
        {
            "bufferView" : 0,
            "componentType" : 5126,
            "count" : 3057,
            "max" : [
                0.1989423632621765,
                0.0666181743144989,
                0.14299902319908142
            ],
            "min" : [
                -0.024165421724319458,
                -0.012401195243000984,
                -0.14299902319908142
            ],
            "type" : "VEC3"
        },
        {
            "bufferView" : 1,
            "componentType" : 5126,
            "count" : 3057,
            "type" : "VEC3"
        },
        {
            "bufferView" : 2,
            "componentType" : 5126,
            "count" : 3057,
            "type" : "VEC2"
        },
        {
            "bufferView" : 3,
            "componentType" : 5121,
            "count" : 3057,
            "type" : "VEC4"
        },
        {
            "bufferView" : 4,
            "componentType" : 5126,
            "count" : 3057,
            "type" : "VEC4"
        },
        {
            "bufferView" : 5,
            "componentType" : 5123,
            "count" : 5532,
            "type" : "SCALAR"
        },
        {
            "bufferView" : 6,
            "componentType" : 5126,
            "count" : 3,
            "type" : "MAT4"
        },
        {
            "bufferView" : 7,
            "componentType" : 5126,
            "count" : 973,
            "max" : [
                0.07292202115058899,
                0.011560186743736267,
                0.08329635113477707
            ],
            "min" : [
                -0.0845787525177002,
                -0.008982937783002853,
                -0.07252659648656845
            ],
            "type" : "VEC3"
        },
        {
            "bufferView" : 8,
            "componentType" : 5126,
            "count" : 973,
            "type" : "VEC3"
        },
        {
            "bufferView" : 9,
            "componentType" : 5126,
            "count" : 973,
            "type" : "VEC2"
        },
        {
            "bufferView" : 10,
            "componentType" : 5123,
            "count" : 1806,
            "type" : "SCALAR"
        },
        {
            "bufferView" : 11,
            "componentType" : 5126,
            "count" : 236,
            "max" : [
                0.18093934655189514,
                0.050349749624729156,
                0.12784676253795624
            ],
            "min" : [
                0.0009695887565612793,
                -0.0004090704023838043,
                -0.12784676253795624
            ],
            "type" : "VEC3"
        },
        {
            "bufferView" : 12,
            "componentType" : 5126,
            "count" : 236,
            "type" : "VEC3"
        },
        {
            "bufferView" : 13,
            "componentType" : 5126,
            "count" : 236,
            "type" : "VEC2"
        },
        {
            "bufferView" : 14,
            "componentType" : 5121,
            "count" : 236,
            "type" : "VEC4"
        },
        {
            "bufferView" : 15,
            "componentType" : 5126,
            "count" : 236,
            "type" : "VEC4"
        },
        {
            "bufferView" : 16,
            "componentType" : 5123,
            "count" : 504,
            "type" : "SCALAR"
        },
        {
            "bufferView" : 17,
            "componentType" : 5126,
            "count" : 3,
            "type" : "MAT4"
        },
        {
            "bufferView" : 18,
            "componentType" : 5126,
            "count" : 26,
            "max" : [
                1.0416666666666667
            ],
            "min" : [
                0
            ],
            "type" : "SCALAR"
        },
        {
            "bufferView" : 19,
            "componentType" : 5126,
            "count" : 26,
            "type" : "VEC3"
        },
        {
            "bufferView" : 20,
            "componentType" : 5126,
            "count" : 26,
            "type" : "VEC4"
        },
        {
            "bufferView" : 21,
            "componentType" : 5126,
            "count" : 26,
            "type" : "VEC3"
        },
        {
            "bufferView" : 22,
            "componentType" : 5126,
            "count" : 26,
            "type" : "VEC3"
        },
        {
            "bufferView" : 23,
            "componentType" : 5126,
            "count" : 26,
            "type" : "VEC4"
        },
        {
            "bufferView" : 24,
            "componentType" : 5126,
            "count" : 26,
            "type" : "VEC3"
        },
        {
            "bufferView" : 25,
            "componentType" : 5126,
            "count" : 26,
            "type" : "VEC3"
        },
        {
            "bufferView" : 26,
            "componentType" : 5126,
            "count" : 26,
            "type" : "VEC4"
        },
        {
            "bufferView" : 27,
            "componentType" : 5126,
            "count" : 26,
            "type" : "VEC3"
        },
        {
            "bufferView" : 28,
            "componentType" : 5126,
            "count" : 1,
            "max" : [
                0
            ],
            "min" : [
                0
            ],
            "type" : "SCALAR"
        },
        {
            "bufferView" : 29,
            "componentType" : 5126,
            "count" : 1,
            "type" : "VEC3"
        },
        {
            "bufferView" : 30,
            "componentType" : 5126,
            "count" : 1,
            "type" : "VEC4"
        },
        {
            "bufferView" : 31,
            "componentType" : 5126,
            "count" : 1,
            "type" : "VEC3"
        },
        {
            "bufferView" : 32,
            "componentType" : 5126,
            "count" : 1,
            "type" : "VEC4"
        },
        {
            "bufferView" : 33,
            "componentType" : 5126,
            "count" : 1,
            "type" : "VEC3"
        },
        {
            "bufferView" : 34,
            "componentType" : 5126,
            "count" : 26,
            "type" : "VEC3"
        },
        {
            "bufferView" : 35,
            "componentType" : 5126,
            "count" : 26,
            "type" : "VEC4"
        },
        {
            "bufferView" : 36,
            "componentType" : 5126,
            "count" : 26,
            "type" : "VEC3"
        },
        {
            "bufferView" : 37,
            "componentType" : 5126,
            "count" : 26,
            "type" : "VEC3"
        },
        {
            "bufferView" : 38,
            "componentType" : 5126,
            "count" : 26,
            "type" : "VEC4"
        },
        {
            "bufferView" : 39,
            "componentType" : 5126,
            "count" : 26,
            "type" : "VEC3"
        },
        {
            "bufferView" : 40,
            "componentType" : 5126,
            "count" : 26,
            "type" : "VEC3"
        },
        {
            "bufferView" : 41,
            "componentType" : 5126,
            "count" : 26,
            "type" : "VEC4"
        },
        {
            "bufferView" : 42,
            "componentType" : 5126,
            "count" : 26,
            "type" : "VEC3"
        },
        {
            "bufferView" : 43,
            "componentType" : 5126,
            "count" : 1,
            "type" : "VEC3"
        },
        {
            "bufferView" : 44,
            "componentType" : 5126,
            "count" : 1,
            "type" : "VEC4"
        },
        {
            "bufferView" : 45,
            "componentType" : 5126,
            "count" : 1,
            "type" : "VEC3"
        },
        {
            "bufferView" : 46,
            "componentType" : 5126,
            "count" : 1,
            "type" : "VEC3"
        },
        {
            "bufferView" : 47,
            "componentType" : 5126,
            "count" : 1,
            "type" : "VEC4"
        },
        {
            "bufferView" : 48,
            "componentType" : 5126,
            "count" : 26,
            "type" : "VEC3"
        },
        {
            "bufferView" : 49,
            "componentType" : 5126,
            "count" : 26,
            "type" : "SCALAR"
        },
        {
            "bufferView" : 50,
            "componentType" : 5126,
            "count" : 1,
            "type" : "VEC3"
        },
        {
            "bufferView" : 51,
            "componentType" : 5126,
            "count" : 1,
            "type" : "VEC4"
        },
        {
            "bufferView" : 52,
            "componentType" : 5126,
            "count" : 1,
            "type" : "VEC3"
        },
        {
            "bufferView" : 53,
            "componentType" : 5126,
            "count" : 26,
            "type" : "VEC3"
        },
        {
            "bufferView" : 54,
            "componentType" : 5126,
            "count" : 122,
            "max" : [
                5.041666666666667
            ],
            "min" : [
                0
            ],
            "type" : "SCALAR"
        },
        {
            "bufferView" : 55,
            "componentType" : 5126,
            "count" : 122,
            "type" : "VEC3"
        },
        {
            "bufferView" : 56,
            "componentType" : 5126,
            "count" : 122,
            "type" : "VEC4"
        },
        {
            "bufferView" : 57,
            "componentType" : 5126,
            "count" : 122,
            "type" : "VEC3"
        }
    ],
    "bufferViews" : [
        {
            "buffer" : 0,
            "byteLength" : 36684,
            "byteOffset" : 0,
            "target" : 34962
        },
        {
            "buffer" : 0,
            "byteLength" : 36684,
            "byteOffset" : 36684,
            "target" : 34962
        },
        {
            "buffer" : 0,
            "byteLength" : 24456,
            "byteOffset" : 73368,
            "target" : 34962
        },
        {
            "buffer" : 0,
            "byteLength" : 12228,
            "byteOffset" : 97824,
            "target" : 34962
        },
        {
            "buffer" : 0,
            "byteLength" : 48912,
            "byteOffset" : 110052,
            "target" : 34962
        },
        {
            "buffer" : 0,
            "byteLength" : 11064,
            "byteOffset" : 158964,
            "target" : 34963
        },
        {
            "buffer" : 0,
            "byteLength" : 192,
            "byteOffset" : 170028
        },
        {
            "buffer" : 0,
            "byteLength" : 11676,
            "byteOffset" : 170220,
            "target" : 34962
        },
        {
            "buffer" : 0,
            "byteLength" : 11676,
            "byteOffset" : 181896,
            "target" : 34962
        },
        {
            "buffer" : 0,
            "byteLength" : 7784,
            "byteOffset" : 193572,
            "target" : 34962
        },
        {
            "buffer" : 0,
            "byteLength" : 3612,
            "byteOffset" : 201356,
            "target" : 34963
        },
        {
            "buffer" : 0,
            "byteLength" : 2832,
            "byteOffset" : 204968,
            "target" : 34962
        },
        {
            "buffer" : 0,
            "byteLength" : 2832,
            "byteOffset" : 207800,
            "target" : 34962
        },
        {
            "buffer" : 0,
            "byteLength" : 1888,
            "byteOffset" : 210632,
            "target" : 34962
        },
        {
            "buffer" : 0,
            "byteLength" : 944,
            "byteOffset" : 212520,
            "target" : 34962
        },
        {
            "buffer" : 0,
            "byteLength" : 3776,
            "byteOffset" : 213464,
            "target" : 34962
        },
        {
            "buffer" : 0,
            "byteLength" : 1008,
            "byteOffset" : 217240,
            "target" : 34963
        },
        {
            "buffer" : 0,
            "byteLength" : 192,
            "byteOffset" : 218248
        },
        {
            "buffer" : 0,
            "byteLength" : 104,
            "byteOffset" : 218440
        },
        {
            "buffer" : 0,
            "byteLength" : 312,
            "byteOffset" : 218544
        },
        {
            "buffer" : 0,
            "byteLength" : 416,
            "byteOffset" : 218856
        },
        {
            "buffer" : 0,
            "byteLength" : 312,
            "byteOffset" : 219272
        },
        {
            "buffer" : 0,
            "byteLength" : 312,
            "byteOffset" : 219584
        },
        {
            "buffer" : 0,
            "byteLength" : 416,
            "byteOffset" : 219896
        },
        {
            "buffer" : 0,
            "byteLength" : 312,
            "byteOffset" : 220312
        },
        {
            "buffer" : 0,
            "byteLength" : 312,
            "byteOffset" : 220624
        },
        {
            "buffer" : 0,
            "byteLength" : 416,
            "byteOffset" : 220936
        },
        {
            "buffer" : 0,
            "byteLength" : 312,
            "byteOffset" : 221352
        },
        {
            "buffer" : 0,
            "byteLength" : 4,
            "byteOffset" : 221664
        },
        {
            "buffer" : 0,
            "byteLength" : 12,
            "byteOffset" : 221668
        },
        {
            "buffer" : 0,
            "byteLength" : 16,
            "byteOffset" : 221680
        },
        {
            "buffer" : 0,
            "byteLength" : 12,
            "byteOffset" : 221696
        },
        {
            "buffer" : 0,
            "byteLength" : 16,
            "byteOffset" : 221708
        },
        {
            "buffer" : 0,
            "byteLength" : 12,
            "byteOffset" : 221724
        },
        {
            "buffer" : 0,
            "byteLength" : 312,
            "byteOffset" : 221736
        },
        {
            "buffer" : 0,
            "byteLength" : 416,
            "byteOffset" : 222048
        },
        {
            "buffer" : 0,
            "byteLength" : 312,
            "byteOffset" : 222464
        },
        {
            "buffer" : 0,
            "byteLength" : 312,
            "byteOffset" : 222776
        },
        {
            "buffer" : 0,
            "byteLength" : 416,
            "byteOffset" : 223088
        },
        {
            "buffer" : 0,
            "byteLength" : 312,
            "byteOffset" : 223504
        },
        {
            "buffer" : 0,
            "byteLength" : 312,
            "byteOffset" : 223816
        },
        {
            "buffer" : 0,
            "byteLength" : 416,
            "byteOffset" : 224128
        },
        {
            "buffer" : 0,
            "byteLength" : 312,
            "byteOffset" : 224544
        },
        {
            "buffer" : 0,
            "byteLength" : 12,
            "byteOffset" : 224856
        },
        {
            "buffer" : 0,
            "byteLength" : 16,
            "byteOffset" : 224868
        },
        {
            "buffer" : 0,
            "byteLength" : 12,
            "byteOffset" : 224884
        },
        {
            "buffer" : 0,
            "byteLength" : 12,
            "byteOffset" : 224896
        },
        {
            "buffer" : 0,
            "byteLength" : 16,
            "byteOffset" : 224908
        },
        {
            "buffer" : 0,
            "byteLength" : 312,
            "byteOffset" : 224924
        },
        {
            "buffer" : 0,
            "byteLength" : 104,
            "byteOffset" : 225236
        },
        {
            "buffer" : 0,
            "byteLength" : 12,
            "byteOffset" : 225340
        },
        {
            "buffer" : 0,
            "byteLength" : 16,
            "byteOffset" : 225352
        },
        {
            "buffer" : 0,
            "byteLength" : 12,
            "byteOffset" : 225368
        },
        {
            "buffer" : 0,
            "byteLength" : 312,
            "byteOffset" : 225380
        },
        {
            "buffer" : 0,
            "byteLength" : 488,
            "byteOffset" : 225692
        },
        {
            "buffer" : 0,
            "byteLength" : 1464,
            "byteOffset" : 226180
        },
        {
            "buffer" : 0,
            "byteLength" : 1952,
            "byteOffset" : 227644
        },
        {
            "buffer" : 0,
            "byteLength" : 1464,
            "byteOffset" : 229596
        }
    ],
    "buffers" : [
        {
            "byteLength" : 231060,
            "uri" : "data:application/octet-stream;base64,"
        }
    ]
}
