{
    "asset" : {
        "copyright" : "K-ro",
        "generator" : "Khronos glTF Blender I/O v3.3.36",
        "version" : "2.0"
    },
    "scene" : 0,
    "scenes" : [
        {
            "name" : "Scene",
            "nodes" : [
                0
            ]
        }
    ],
    "nodes" : [
        {
            "mesh" : 0,
            "name" : "Ground 12x12 style01",
            "translation" : [
                31.82000160217285,
                0.3999999761581421,
                0
            ]
        }
    ],
    "meshes" : [
        {
            "name" : "Ground 12x12 style01",
            "primitives" : [
                {
                    "attributes" : {
                        "POSITION" : 0,
                        "NORMAL" : 1,
                        "TEXCOORD_0" : 2
                    },
                    "indices" : 3
                }
            ]
        }
    ],
    "accessors" : [
        {
            "bufferView" : 0,
            "componentType" : 5126,
            "count" : 355,
            "max" : [
                6,
                0,
                6
            ],
            "min" : [
                -6,
                -1.4000000953674316,
                -6
            ],
            "type" : "VEC3"
        },
        {
            "bufferView" : 1,
            "componentType" : 5126,
            "count" : 355,
            "type" : "VEC3"
        },
        {
            "bufferView" : 2,
            "componentType" : 5126,
            "count" : 355,
            "type" : "VEC2"
        },
        {
            "bufferView" : 3,
            "componentType" : 5123,
            "count" : 558,
            "type" : "SCALAR"
        }
    ],
    "bufferViews" : [
        {
            "buffer" : 0,
            "byteLength" : 4260,
            "byteOffset" : 0,
            "target" : 34962
        },
        {
            "buffer" : 0,
            "byteLength" : 4260,
            "byteOffset" : 4260,
            "target" : 34962
        },
        {
            "buffer" : 0,
            "byteLength" : 2840,
            "byteOffset" : 8520,
            "target" : 34962
        },
        {
            "buffer" : 0,
            "byteLength" : 1116,
            "byteOffset" : 11360,
            "target" : 34963
        }
    ],
    "buffers" : [
        {
            "byteLength" : 12476,
            "uri" : "data:application/octet-stream;base64,"
        }
    ]
}
