{
    "asset" : {
        "copyright" : "K-ro",
        "generator" : "Khronos glTF Blender I/O v3.3.36",
        "version" : "2.0"
    },
    "scene" : 0,
    "scenes" : [
        {
            "name" : "Scene",
            "nodes" : [
                0
            ]
        }
    ],
    "nodes" : [
        {
            "mesh" : 0,
            "name" : "Ground 8x8 style01",
            "translation" : [
                21.969999313354492,
                0.20000000298023224,
                0
            ]
        }
    ],
    "meshes" : [
        {
            "name" : "Ground 8x8 style01",
            "primitives" : [
                {
                    "attributes" : {
                        "POSITION" : 0,
                        "NORMAL" : 1,
                        "TEXCOORD_0" : 2
                    },
                    "indices" : 3
                }
            ]
        }
    ],
    "accessors" : [
        {
            "bufferView" : 0,
            "componentType" : 5126,
            "count" : 580,
            "max" : [
                3.9700000286102295,
                0,
                4
            ],
            "min" : [
                -4.03000020980835,
                -1.1999999284744263,
                -4
            ],
            "type" : "VEC3"
        },
        {
            "bufferView" : 1,
            "componentType" : 5126,
            "count" : 580,
            "type" : "VEC3"
        },
        {
            "bufferView" : 2,
            "componentType" : 5126,
            "count" : 580,
            "type" : "VEC2"
        },
        {
            "bufferView" : 3,
            "componentType" : 5123,
            "count" : 942,
            "type" : "SCALAR"
        }
    ],
    "bufferViews" : [
        {
            "buffer" : 0,
            "byteLength" : 6960,
            "byteOffset" : 0,
            "target" : 34962
        },
        {
            "buffer" : 0,
            "byteLength" : 6960,
            "byteOffset" : 6960,
            "target" : 34962
        },
        {
            "buffer" : 0,
            "byteLength" : 4640,
            "byteOffset" : 13920,
            "target" : 34962
        },
        {
            "buffer" : 0,
            "byteLength" : 1884,
            "byteOffset" : 18560,
            "target" : 34963
        }
    ],
    "buffers" : [
        {
            "byteLength" : 20444,
            "uri" : "data:application/octet-stream;base64,"
        }
    ]
}
