{
    "asset" : {
        "copyright" : "K-ro",
        "generator" : "Khronos glTF Blender I/O v3.3.27",
        "version" : "2.0"
    },
    "extensionsUsed" : [
        "KHR_materials_transmission",
        "KHR_materials_ior"
    ],
    "scene" : 0,
    "scenes" : [
        {
            "name" : "Scene",
            "nodes" : [
                0,
                1,
                2,
                3,
                4,
                5
            ]
        }
    ],
    "nodes" : [
        {
            "mesh" : 0,
            "name" : "Portal Arch",
            "scale" : [
                0.5,
                0.6850000023841858,
                0.5
            ],
            "translation" : [
                -22.13816261291504,
                5.613950252532959,
                16.000228881835938
            ]
        },
        {
            "mesh" : 1,
            "name" : "Step1",
            "scale" : [
                3.1133196353912354,
                1,
                1.5551203489303589
            ],
            "translation" : [
                -21.98401641845703,
                -0.18137142062187195,
                16.499324798583984
            ]
        },
        {
            "mesh" : 2,
            "name" : "Portal",
            "rotation" : [
                0.7071068286895752,
                0,
                0,
                0.7071068286895752
            ],
            "scale" : [
                1.7089418172836304,
                1,
                2.7064285278320312
            ],
            "translation" : [
                -21.98401641845703,
                2.487614154815674,
                16.504735946655273
            ]
        },
        {
            "mesh" : 3,
            "name" : "Step2",
            "scale" : [
                3.7078933715820312,
                1,
                2.1324779987335205
            ],
            "translation" : [
                -21.98401641845703,
                -0.7534592151641846,
                16.534225463867188
            ]
        },
        {
            "mesh" : 4,
            "name" : "Plant.001",
            "rotation" : [
                0,
                -1,
                0,
                4.371138828673793e-08
            ],
            "scale" : [
                0.40937191247940063,
                0.40937185287475586,
                0.40937188267707825
            ],
            "translation" : [
                -24.623977661132812,
                -0.21321962773799896,
                17.117477416992188
            ]
        },
        {
            "mesh" : 5,
            "name" : "Plant.002",
            "rotation" : [
                0,
                -0.9195763468742371,
                -0.39291149377822876,
                3.931952221591928e-07
            ],
            "scale" : [
                0.3202228248119354,
                0.32022276520729065,
                0.3202228248119354
            ],
            "translation" : [
                -20.774063110351562,
                6.430650234222412,
                16.164274215698242
            ]
        }
    ],
    "materials" : [
        {
            "doubleSided" : true,
            "name" : "temple",
            "pbrMetallicRoughness" : {
                "baseColorFactor" : [
                    0.9301102757453918,
                    0.7605238556861877,
                    0.5271152257919312,
                    1
                ],
                "metallicFactor" : 0,
                "roughnessFactor" : 0.5
            }
        },
        {
            "doubleSided" : true,
            "extensions" : {
                "KHR_materials_transmission" : {
                    "transmissionFactor" : 0.949999988079071
                },
                "KHR_materials_ior" : {
                    "ior" : 1.4500000476837158
                }
            },
            "name" : "Portal",
            "pbrMetallicRoughness" : {
                "baseColorFactor" : [
                    0.800000011920929,
                    0.800000011920929,
                    0.800000011920929,
                    1
                ],
                "metallicFactor" : 0,
                "roughnessFactor" : 0.10000000149011612
            }
        }
    ],
    "meshes" : [
        {
            "name" : "Cube.029",
            "primitives" : [
                {
                    "attributes" : {
                        "POSITION" : 0,
                        "NORMAL" : 1,
                        "TEXCOORD_0" : 2
                    },
                    "indices" : 3,
                    "material" : 0
                }
            ]
        },
        {
            "name" : "Plane.005",
            "primitives" : [
                {
                    "attributes" : {
                        "POSITION" : 4,
                        "NORMAL" : 5,
                        "TEXCOORD_0" : 6
                    },
                    "indices" : 7
                }
            ]
        },
        {
            "name" : "Plane.007",
            "primitives" : [
                {
                    "attributes" : {
                        "POSITION" : 8,
                        "NORMAL" : 9,
                        "TEXCOORD_0" : 10
                    },
                    "indices" : 11,
                    "material" : 1
                }
            ]
        },
        {
            "name" : "Plane.008",
            "primitives" : [
                {
                    "attributes" : {
                        "POSITION" : 12,
                        "NORMAL" : 13,
                        "TEXCOORD_0" : 14
                    },
                    "indices" : 15
                }
            ]
        },
        {
            "name" : "Plane.009",
            "primitives" : [
                {
                    "attributes" : {
                        "POSITION" : 16,
                        "NORMAL" : 17,
                        "TEXCOORD_0" : 18
                    },
                    "indices" : 19
                }
            ]
        },
        {
            "name" : "Plane.010",
            "primitives" : [
                {
                    "attributes" : {
                        "POSITION" : 20,
                        "NORMAL" : 21,
                        "TEXCOORD_0" : 22
                    },
                    "indices" : 19
                }
            ]
        }
    ],
    "accessors" : [
        {
            "bufferView" : 0,
            "componentType" : 5126,
            "count" : 1144,
            "max" : [
                5.013260364532471,
                1.5847625732421875,
                1.0034890174865723
            ],
            "min" : [
                -4.698607444763184,
                -8.453907012939453,
                -1.0199743509292603
            ],
            "type" : "VEC3"
        },
        {
            "bufferView" : 1,
            "componentType" : 5126,
            "count" : 1144,
            "type" : "VEC3"
        },
        {
            "bufferView" : 2,
            "componentType" : 5126,
            "count" : 1144,
            "type" : "VEC2"
        },
        {
            "bufferView" : 3,
            "componentType" : 5123,
            "count" : 1920,
            "type" : "SCALAR"
        },
        {
            "bufferView" : 4,
            "componentType" : 5126,
            "count" : 159,
            "max" : [
                1,
                0,
                1
            ],
            "min" : [
                -1,
                -0.5813999176025391,
                -1
            ],
            "type" : "VEC3"
        },
        {
            "bufferView" : 5,
            "componentType" : 5126,
            "count" : 159,
            "type" : "VEC3"
        },
        {
            "bufferView" : 6,
            "componentType" : 5126,
            "count" : 159,
            "type" : "VEC2"
        },
        {
            "bufferView" : 7,
            "componentType" : 5123,
            "count" : 288,
            "type" : "SCALAR"
        },
        {
            "bufferView" : 8,
            "componentType" : 5126,
            "count" : 4753,
            "max" : [
                1.0000001192092896,
                -0.4740941822528839,
                1.0000001192092896
            ],
            "min" : [
                -1.0000001192092896,
                -0.5390941500663757,
                -1.1813050508499146
            ],
            "type" : "VEC3"
        },
        {
            "bufferView" : 9,
            "componentType" : 5126,
            "count" : 4753,
            "type" : "VEC3"
        },
        {
            "bufferView" : 10,
            "componentType" : 5126,
            "count" : 4753,
            "type" : "VEC2"
        },
        {
            "bufferView" : 11,
            "componentType" : 5123,
            "count" : 27648,
            "type" : "SCALAR"
        },
        {
            "bufferView" : 12,
            "componentType" : 5126,
            "count" : 237,
            "max" : [
                1,
                0,
                1
            ],
            "min" : [
                -1,
                -0.4891508221626282,
                -1
            ],
            "type" : "VEC3"
        },
        {
            "bufferView" : 13,
            "componentType" : 5126,
            "count" : 237,
            "type" : "VEC3"
        },
        {
            "bufferView" : 14,
            "componentType" : 5126,
            "count" : 237,
            "type" : "VEC2"
        },
        {
            "bufferView" : 15,
            "componentType" : 5123,
            "count" : 492,
            "type" : "SCALAR"
        },
        {
            "bufferView" : 16,
            "componentType" : 5126,
            "count" : 270,
            "max" : [
                1.7294028997421265,
                1.7254339456558228,
                1.0662227869033813
            ],
            "min" : [
                -2.4583632946014404,
                -0.0449804812669754,
                -2.558788537979126
            ],
            "type" : "VEC3"
        },
        {
            "bufferView" : 17,
            "componentType" : 5126,
            "count" : 270,
            "type" : "VEC3"
        },
        {
            "bufferView" : 18,
            "componentType" : 5126,
            "count" : 270,
            "type" : "VEC2"
        },
        {
            "bufferView" : 19,
            "componentType" : 5123,
            "count" : 666,
            "type" : "SCALAR"
        },
        {
            "bufferView" : 20,
            "componentType" : 5126,
            "count" : 270,
            "max" : [
                1.7294028997421265,
                1.7254339456558228,
                1.0662227869033813
            ],
            "min" : [
                -2.4583632946014404,
                -0.0449804812669754,
                -2.558788537979126
            ],
            "type" : "VEC3"
        },
        {
            "bufferView" : 21,
            "componentType" : 5126,
            "count" : 270,
            "type" : "VEC3"
        },
        {
            "bufferView" : 22,
            "componentType" : 5126,
            "count" : 270,
            "type" : "VEC2"
        }
    ],
    "bufferViews" : [
        {
            "buffer" : 0,
            "byteLength" : 13728,
            "byteOffset" : 0,
            "target" : 34962
        },
        {
            "buffer" : 0,
            "byteLength" : 13728,
            "byteOffset" : 13728,
            "target" : 34962
        },
        {
            "buffer" : 0,
            "byteLength" : 9152,
            "byteOffset" : 27456,
            "target" : 34962
        },
        {
            "buffer" : 0,
            "byteLength" : 3840,
            "byteOffset" : 36608,
            "target" : 34963
        },
        {
            "buffer" : 0,
            "byteLength" : 1908,
            "byteOffset" : 40448,
            "target" : 34962
        },
        {
            "buffer" : 0,
            "byteLength" : 1908,
            "byteOffset" : 42356,
            "target" : 34962
        },
        {
            "buffer" : 0,
            "byteLength" : 1272,
            "byteOffset" : 44264,
            "target" : 34962
        },
        {
            "buffer" : 0,
            "byteLength" : 576,
            "byteOffset" : 45536,
            "target" : 34963
        },
        {
            "buffer" : 0,
            "byteLength" : 57036,
            "byteOffset" : 46112,
            "target" : 34962
        },
        {
            "buffer" : 0,
            "byteLength" : 57036,
            "byteOffset" : 103148,
            "target" : 34962
        },
        {
            "buffer" : 0,
            "byteLength" : 38024,
            "byteOffset" : 160184,
            "target" : 34962
        },
        {
            "buffer" : 0,
            "byteLength" : 55296,
            "byteOffset" : 198208,
            "target" : 34963
        },
        {
            "buffer" : 0,
            "byteLength" : 2844,
            "byteOffset" : 253504,
            "target" : 34962
        },
        {
            "buffer" : 0,
            "byteLength" : 2844,
            "byteOffset" : 256348,
            "target" : 34962
        },
        {
            "buffer" : 0,
            "byteLength" : 1896,
            "byteOffset" : 259192,
            "target" : 34962
        },
        {
            "buffer" : 0,
            "byteLength" : 984,
            "byteOffset" : 261088,
            "target" : 34963
        },
        {
            "buffer" : 0,
            "byteLength" : 3240,
            "byteOffset" : 262072,
            "target" : 34962
        },
        {
            "buffer" : 0,
            "byteLength" : 3240,
            "byteOffset" : 265312,
            "target" : 34962
        },
        {
            "buffer" : 0,
            "byteLength" : 2160,
            "byteOffset" : 268552,
            "target" : 34962
        },
        {
            "buffer" : 0,
            "byteLength" : 1332,
            "byteOffset" : 270712,
            "target" : 34963
        },
        {
            "buffer" : 0,
            "byteLength" : 3240,
            "byteOffset" : 272044,
            "target" : 34962
        },
        {
            "buffer" : 0,
            "byteLength" : 3240,
            "byteOffset" : 275284,
            "target" : 34962
        },
        {
            "buffer" : 0,
            "byteLength" : 2160,
            "byteOffset" : 278524,
            "target" : 34962
        }
    ],
    "buffers" : [
        {
            "byteLength" : 280684,
            "uri" : "data:application/octet-stream;base64,"
        }
    ]
}
