{
    "asset" : {
        "copyright" : "K-ro",
        "generator" : "Khronos glTF Blender I/O v3.3.36",
        "version" : "2.0"
    },
    "scene" : 0,
    "scenes" : [
        {
            "name" : "Scene",
            "nodes" : [
                0,
                1,
                2,
                3,
                4,
                5,
                6
            ]
        }
    ],
    "nodes" : [
        {
            "mesh" : 0,
            "name" : "Crystal",
            "scale" : [
                0.7227047681808472,
                0.7227047681808472,
                0.7227045297622681
            ],
            "translation" : [
                21.987232208251953,
                3.032198667526245,
                0
            ]
        },
        {
            "mesh" : 1,
            "name" : "Fountain",
            "translation" : [
                22,
                1.100000023841858,
                0
            ]
        },
        {
            "mesh" : 2,
            "name" : "Cylinder.001",
            "translation" : [
                21.989154815673828,
                2.489248514175415,
                0.004275459796190262
            ]
        },
        {
            "mesh" : 3,
            "name" : "Cylinder.002",
            "rotation" : [
                0.011452724225819111,
                0.25716060400009155,
                0.04299188777804375,
                0.9653439521789551
            ],
            "translation" : [
                22.05023193359375,
                2.32647442817688,
                -0.03096064180135727
            ]
        },
        {
            "mesh" : 4,
            "name" : "Cylinder.003",
            "translation" : [
                21.940162658691406,
                2.32647442817688,
                -0.011631704866886139
            ]
        },
        {
            "mesh" : 5,
            "name" : "Cylinder.004",
            "rotation" : [
                0,
                -0.992293655872345,
                0,
                0.12390856444835663
            ],
            "translation" : [
                22.0345401763916,
                2.32647442817688,
                0.031887274235486984
            ]
        },
        {
            "name" : "NurbsPath",
            "translation" : [
                21.989154815673828,
                2.489248514175415,
                0.004275459796190262
            ]
        }
    ],
    "meshes" : [
        {
            "name" : "Crystal",
            "primitives" : [
                {
                    "attributes" : {
                        "POSITION" : 0,
                        "NORMAL" : 1,
                        "TEXCOORD_0" : 2
                    },
                    "indices" : 3
                }
            ]
        },
        {
            "name" : "Fountain",
            "primitives" : [
                {
                    "attributes" : {
                        "POSITION" : 4,
                        "NORMAL" : 5,
                        "TEXCOORD_0" : 6
                    },
                    "indices" : 7
                }
            ]
        },
        {
            "name" : "Cylinder.001",
            "primitives" : [
                {
                    "attributes" : {
                        "POSITION" : 8,
                        "NORMAL" : 9,
                        "TEXCOORD_0" : 10
                    },
                    "indices" : 11
                }
            ]
        },
        {
            "name" : "Cylinder.004",
            "primitives" : [
                {
                    "attributes" : {
                        "POSITION" : 12,
                        "NORMAL" : 13,
                        "TEXCOORD_0" : 14
                    },
                    "indices" : 15
                }
            ]
        },
        {
            "name" : "Cylinder.007",
            "primitives" : [
                {
                    "attributes" : {
                        "POSITION" : 16,
                        "NORMAL" : 17,
                        "TEXCOORD_0" : 18
                    },
                    "indices" : 19
                }
            ]
        },
        {
            "name" : "Cylinder.008",
            "primitives" : [
                {
                    "attributes" : {
                        "POSITION" : 20,
                        "NORMAL" : 21,
                        "TEXCOORD_0" : 22
                    },
                    "indices" : 23
                }
            ]
        }
    ],
    "accessors" : [
        {
            "bufferView" : 0,
            "componentType" : 5126,
            "count" : 250,
            "max" : [
                0.3625447452068329,
                0.8560618758201599,
                0.41863059997558594
            ],
            "min" : [
                -0.3625447452068329,
                -0.7517246603965759,
                -0.41863059997558594
            ],
            "type" : "VEC3"
        },
        {
            "bufferView" : 1,
            "componentType" : 5126,
            "count" : 250,
            "type" : "VEC3"
        },
        {
            "bufferView" : 2,
            "componentType" : 5126,
            "count" : 250,
            "type" : "VEC2"
        },
        {
            "bufferView" : 3,
            "componentType" : 5123,
            "count" : 420,
            "type" : "SCALAR"
        },
        {
            "bufferView" : 4,
            "componentType" : 5126,
            "count" : 866,
            "max" : [
                0.5200004577636719,
                1.0199998617172241,
                0.5199999809265137
            ],
            "min" : [
                -0.5200004577636719,
                -0.9000000357627869,
                -0.5199999809265137
            ],
            "type" : "VEC3"
        },
        {
            "bufferView" : 5,
            "componentType" : 5126,
            "count" : 866,
            "type" : "VEC3"
        },
        {
            "bufferView" : 6,
            "componentType" : 5126,
            "count" : 866,
            "type" : "VEC2"
        },
        {
            "bufferView" : 7,
            "componentType" : 5123,
            "count" : 1524,
            "type" : "SCALAR"
        },
        {
            "bufferView" : 8,
            "componentType" : 5126,
            "count" : 1200,
            "max" : [
                0.07115127891302109,
                0.012824103236198425,
                0.16895876824855804
            ],
            "min" : [
                -0.049125075340270996,
                -1.1430610418319702,
                -0.08314156532287598
            ],
            "type" : "VEC3"
        },
        {
            "bufferView" : 9,
            "componentType" : 5126,
            "count" : 1200,
            "type" : "VEC3"
        },
        {
            "bufferView" : 10,
            "componentType" : 5126,
            "count" : 1200,
            "type" : "VEC2"
        },
        {
            "bufferView" : 11,
            "componentType" : 5123,
            "count" : 4992,
            "type" : "SCALAR"
        },
        {
            "bufferView" : 12,
            "componentType" : 5126,
            "count" : 150,
            "max" : [
                0.02519250102341175,
                0.16003847122192383,
                0.0251924991607666
            ],
            "min" : [
                -0.0251924991607666,
                -0.1400715410709381,
                -0.0251924991607666
            ],
            "type" : "VEC3"
        },
        {
            "bufferView" : 13,
            "componentType" : 5126,
            "count" : 150,
            "type" : "VEC3"
        },
        {
            "bufferView" : 14,
            "componentType" : 5126,
            "count" : 150,
            "type" : "VEC2"
        },
        {
            "bufferView" : 15,
            "componentType" : 5123,
            "count" : 624,
            "type" : "SCALAR"
        },
        {
            "bufferView" : 16,
            "componentType" : 5126,
            "count" : 75,
            "max" : [
                0.02552112378180027,
                0.16003847122192383,
                0.02552112378180027
            ],
            "min" : [
                -0.02552112378180027,
                -0.1400715410709381,
                -0.02552112564444542
            ],
            "type" : "VEC3"
        },
        {
            "bufferView" : 17,
            "componentType" : 5126,
            "count" : 75,
            "type" : "VEC3"
        },
        {
            "bufferView" : 18,
            "componentType" : 5126,
            "count" : 75,
            "type" : "VEC2"
        },
        {
            "bufferView" : 19,
            "componentType" : 5123,
            "count" : 312,
            "type" : "SCALAR"
        },
        {
            "bufferView" : 20,
            "componentType" : 5126,
            "count" : 75,
            "max" : [
                0.023507490754127502,
                0.16003847122192383,
                0.02552512101829052
            ],
            "min" : [
                -0.025460587814450264,
                -0.1400715410709381,
                -0.025072719901800156
            ],
            "type" : "VEC3"
        },
        {
            "bufferView" : 21,
            "componentType" : 5126,
            "count" : 75,
            "type" : "VEC3"
        },
        {
            "bufferView" : 22,
            "componentType" : 5126,
            "count" : 75,
            "type" : "VEC2"
        },
        {
            "bufferView" : 23,
            "componentType" : 5123,
            "count" : 312,
            "type" : "SCALAR"
        }
    ],
    "bufferViews" : [
        {
            "buffer" : 0,
            "byteLength" : 3000,
            "byteOffset" : 0,
            "target" : 34962
        },
        {
            "buffer" : 0,
            "byteLength" : 3000,
            "byteOffset" : 3000,
            "target" : 34962
        },
        {
            "buffer" : 0,
            "byteLength" : 2000,
            "byteOffset" : 6000,
            "target" : 34962
        },
        {
            "buffer" : 0,
            "byteLength" : 840,
            "byteOffset" : 8000,
            "target" : 34963
        },
        {
            "buffer" : 0,
            "byteLength" : 10392,
            "byteOffset" : 8840,
            "target" : 34962
        },
        {
            "buffer" : 0,
            "byteLength" : 10392,
            "byteOffset" : 19232,
            "target" : 34962
        },
        {
            "buffer" : 0,
            "byteLength" : 6928,
            "byteOffset" : 29624,
            "target" : 34962
        },
        {
            "buffer" : 0,
            "byteLength" : 3048,
            "byteOffset" : 36552,
            "target" : 34963
        },
        {
            "buffer" : 0,
            "byteLength" : 14400,
            "byteOffset" : 39600,
            "target" : 34962
        },
        {
            "buffer" : 0,
            "byteLength" : 14400,
            "byteOffset" : 54000,
            "target" : 34962
        },
        {
            "buffer" : 0,
            "byteLength" : 9600,
            "byteOffset" : 68400,
            "target" : 34962
        },
        {
            "buffer" : 0,
            "byteLength" : 9984,
            "byteOffset" : 78000,
            "target" : 34963
        },
        {
            "buffer" : 0,
            "byteLength" : 1800,
            "byteOffset" : 87984,
            "target" : 34962
        },
        {
            "buffer" : 0,
            "byteLength" : 1800,
            "byteOffset" : 89784,
            "target" : 34962
        },
        {
            "buffer" : 0,
            "byteLength" : 1200,
            "byteOffset" : 91584,
            "target" : 34962
        },
        {
            "buffer" : 0,
            "byteLength" : 1248,
            "byteOffset" : 92784,
            "target" : 34963
        },
        {
            "buffer" : 0,
            "byteLength" : 900,
            "byteOffset" : 94032,
            "target" : 34962
        },
        {
            "buffer" : 0,
            "byteLength" : 900,
            "byteOffset" : 94932,
            "target" : 34962
        },
        {
            "buffer" : 0,
            "byteLength" : 600,
            "byteOffset" : 95832,
            "target" : 34962
        },
        {
            "buffer" : 0,
            "byteLength" : 624,
            "byteOffset" : 96432,
            "target" : 34963
        },
        {
            "buffer" : 0,
            "byteLength" : 900,
            "byteOffset" : 97056,
            "target" : 34962
        },
        {
            "buffer" : 0,
            "byteLength" : 900,
            "byteOffset" : 97956,
            "target" : 34962
        },
        {
            "buffer" : 0,
            "byteLength" : 600,
            "byteOffset" : 98856,
            "target" : 34962
        },
        {
            "buffer" : 0,
            "byteLength" : 624,
            "byteOffset" : 99456,
            "target" : 34963
        }
    ],
    "buffers" : [
        {
            "byteLength" : 100080,
            "uri" : "data:application/octet-stream;base64,"
        }
    ]
}
