{
    "asset" : {
        "copyright" : "K-ro",
        "generator" : "Khronos glTF Blender I/O v3.3.36",
        "version" : "2.0"
    },
    "scene" : 0,
    "scenes" : [
        {
            "name" : "Scene",
            "nodes" : [
                0,
                1,
                2,
                3,
                4,
                5,
                6,
                7,
                8,
                9,
                10,
                11,
                12,
                13,
                14,
                15,
                16,
                17,
                18,
                19
            ]
        }
    ],
    "nodes" : [
        {
            "mesh" : 0,
            "name" : "Plane.005",
            "scale" : [
                1,
                2.7272727489471436,
                0.14999999105930328
            ],
            "translation" : [
                26.989154815673828,
                0.3892485201358795,
                7.84427547454834
            ]
        },
        {
            "mesh" : 1,
            "name" : "Plane.006",
            "scale" : [
                1,
                2.7272727489471436,
                0.14999999105930328
            ],
            "translation" : [
                28.989154815673828,
                0.3892485201358795,
                7.84427547454834
            ]
        },
        {
            "mesh" : 2,
            "name" : "Plane.007",
            "scale" : [
                1,
                2.7272727489471436,
                0.14999999105930328
            ],
            "translation" : [
                30.989154815673828,
                0.3892485201358795,
                7.84427547454834
            ]
        },
        {
            "mesh" : 3,
            "name" : "Plane.008",
            "scale" : [
                1,
                2.7272727489471436,
                0.14999999105930328
            ],
            "translation" : [
                32.98915481567383,
                0.3892485201358795,
                7.84427547454834
            ]
        },
        {
            "mesh" : 4,
            "name" : "Plane.009",
            "scale" : [
                1,
                2.7272727489471436,
                0.14999999105930328
            ],
            "translation" : [
                34.98915481567383,
                0.3892485201358795,
                7.84427547454834
            ]
        },
        {
            "mesh" : 5,
            "name" : "Plane",
            "scale" : [
                0.25,
                8.750000953674316,
                0.25
            ],
            "translation" : [
                27.989154815673828,
                0.3992484509944916,
                7.444275379180908
            ]
        },
        {
            "mesh" : 6,
            "name" : "Plane.011",
            "scale" : [
                0.25,
                8.750000953674316,
                0.25
            ],
            "translation" : [
                29.989154815673828,
                0.3992484509944916,
                7.444275379180908
            ]
        },
        {
            "mesh" : 7,
            "name" : "Plane.013",
            "translation" : [
                21.989154815673828,
                2.489248514175415,
                -0.03139565885066986
            ]
        },
        {
            "mesh" : 8,
            "name" : "Plane.014",
            "translation" : [
                35.93000030517578,
                0.4000000059604645,
                -9
            ]
        },
        {
            "mesh" : 9,
            "name" : "Plane.016",
            "scale" : [
                1,
                2.7272727489471436,
                0.14999999105930328
            ],
            "translation" : [
                32.98915481567383,
                0.3892485201358795,
                -7.855724334716797
            ]
        },
        {
            "mesh" : 10,
            "name" : "Plane.017",
            "scale" : [
                1,
                2.7272727489471436,
                0.14999999105930328
            ],
            "translation" : [
                34.98915481567383,
                0.3892485201358795,
                -7.855724334716797
            ]
        },
        {
            "mesh" : 11,
            "name" : "Plane.018",
            "scale" : [
                1,
                2.7272727489471436,
                0.14999999105930328
            ],
            "translation" : [
                30.989154815673828,
                0.3892485201358795,
                -7.855724334716797
            ]
        },
        {
            "mesh" : 12,
            "name" : "Plane.012",
            "scale" : [
                2,
                1,
                2
            ],
            "translation" : [
                38.93000030517578,
                3.4000000953674316,
                -10
            ]
        },
        {
            "mesh" : 13,
            "name" : "Plane.019",
            "scale" : [
                1.5,
                1,
                1.5
            ],
            "translation" : [
                35.43000030517578,
                2.4000000953674316,
                -11.5
            ]
        },
        {
            "mesh" : 14,
            "name" : "Plane.020",
            "translation" : [
                35.529998779296875,
                0.4000000059604645,
                9
            ]
        },
        {
            "mesh" : 15,
            "name" : "Plane.021",
            "scale" : [
                2,
                1,
                2
            ],
            "translation" : [
                38.529998779296875,
                3.4000000953674316,
                10
            ]
        },
        {
            "mesh" : 16,
            "name" : "Plane.022",
            "scale" : [
                1.5,
                1,
                1.5
            ],
            "translation" : [
                35.029998779296875,
                1.4000000953674316,
                11.5
            ]
        },
        {
            "mesh" : 17,
            "name" : "Cyber GlassHouse",
            "scale" : [
                1,
                3.663414716720581,
                1.5
            ],
            "translation" : [
                38.93369674682617,
                0.4000000059604645,
                0
            ]
        },
        {
            "mesh" : 18,
            "name" : "Plane.001",
            "translation" : [
                37.970245361328125,
                0.3999999761581421,
                2.5
            ]
        },
        {
            "mesh" : 19,
            "name" : "Plane.015",
            "translation" : [
                35.98915481567383,
                2.489248514175415,
                6.004275321960449
            ]
        }
    ],
    "meshes" : [
        {
            "name" : "Plane.007",
            "primitives" : [
                {
                    "attributes" : {
                        "POSITION" : 0,
                        "NORMAL" : 1,
                        "TEXCOORD_0" : 2
                    },
                    "indices" : 3
                }
            ]
        },
        {
            "name" : "Plane.008",
            "primitives" : [
                {
                    "attributes" : {
                        "POSITION" : 4,
                        "NORMAL" : 5,
                        "TEXCOORD_0" : 6
                    },
                    "indices" : 3
                }
            ]
        },
        {
            "name" : "Plane.009",
            "primitives" : [
                {
                    "attributes" : {
                        "POSITION" : 7,
                        "NORMAL" : 8,
                        "TEXCOORD_0" : 9
                    },
                    "indices" : 3
                }
            ]
        },
        {
            "name" : "Plane.010",
            "primitives" : [
                {
                    "attributes" : {
                        "POSITION" : 10,
                        "NORMAL" : 11,
                        "TEXCOORD_0" : 12
                    },
                    "indices" : 3
                }
            ]
        },
        {
            "name" : "Plane.011",
            "primitives" : [
                {
                    "attributes" : {
                        "POSITION" : 13,
                        "NORMAL" : 14,
                        "TEXCOORD_0" : 15
                    },
                    "indices" : 3
                }
            ]
        },
        {
            "name" : "Plane.013",
            "primitives" : [
                {
                    "attributes" : {
                        "POSITION" : 16,
                        "NORMAL" : 17,
                        "TEXCOORD_0" : 18
                    },
                    "indices" : 3
                }
            ]
        },
        {
            "name" : "Plane.014",
            "primitives" : [
                {
                    "attributes" : {
                        "POSITION" : 19,
                        "NORMAL" : 20,
                        "TEXCOORD_0" : 21
                    },
                    "indices" : 3
                }
            ]
        },
        {
            "name" : "Plane.019",
            "primitives" : [
                {
                    "attributes" : {
                        "POSITION" : 22,
                        "NORMAL" : 23,
                        "TEXCOORD_0" : 24
                    },
                    "indices" : 25
                }
            ]
        },
        {
            "name" : "Plane.020",
            "primitives" : [
                {
                    "attributes" : {
                        "POSITION" : 26,
                        "NORMAL" : 27,
                        "TEXCOORD_0" : 28
                    },
                    "indices" : 29
                }
            ]
        },
        {
            "name" : "Plane.021",
            "primitives" : [
                {
                    "attributes" : {
                        "POSITION" : 30,
                        "NORMAL" : 31,
                        "TEXCOORD_0" : 32
                    },
                    "indices" : 3
                }
            ]
        },
        {
            "name" : "Plane.022",
            "primitives" : [
                {
                    "attributes" : {
                        "POSITION" : 33,
                        "NORMAL" : 34,
                        "TEXCOORD_0" : 35
                    },
                    "indices" : 3
                }
            ]
        },
        {
            "name" : "Plane.023",
            "primitives" : [
                {
                    "attributes" : {
                        "POSITION" : 36,
                        "NORMAL" : 37,
                        "TEXCOORD_0" : 38
                    },
                    "indices" : 3
                }
            ]
        },
        {
            "name" : "Plane.024",
            "primitives" : [
                {
                    "attributes" : {
                        "POSITION" : 39,
                        "NORMAL" : 40,
                        "TEXCOORD_0" : 41
                    },
                    "indices" : 29
                }
            ]
        },
        {
            "name" : "Plane.025",
            "primitives" : [
                {
                    "attributes" : {
                        "POSITION" : 42,
                        "NORMAL" : 43,
                        "TEXCOORD_0" : 44
                    },
                    "indices" : 29
                }
            ]
        },
        {
            "name" : "Plane.026",
            "primitives" : [
                {
                    "attributes" : {
                        "POSITION" : 45,
                        "NORMAL" : 46,
                        "TEXCOORD_0" : 47
                    },
                    "indices" : 29
                }
            ]
        },
        {
            "name" : "Plane.027",
            "primitives" : [
                {
                    "attributes" : {
                        "POSITION" : 48,
                        "NORMAL" : 49,
                        "TEXCOORD_0" : 50
                    },
                    "indices" : 29
                }
            ]
        },
        {
            "name" : "Plane.028",
            "primitives" : [
                {
                    "attributes" : {
                        "POSITION" : 51,
                        "NORMAL" : 52,
                        "TEXCOORD_0" : 53
                    },
                    "indices" : 29
                }
            ]
        },
        {
            "name" : "Cyber GlassHouse",
            "primitives" : [
                {
                    "attributes" : {
                        "POSITION" : 54,
                        "NORMAL" : 55,
                        "TEXCOORD_0" : 56
                    },
                    "indices" : 57
                }
            ]
        },
        {
            "name" : "Plane.002",
            "primitives" : [
                {
                    "attributes" : {
                        "POSITION" : 58,
                        "NORMAL" : 59,
                        "TEXCOORD_0" : 60
                    },
                    "indices" : 61
                }
            ]
        },
        {
            "name" : "Plane.018",
            "primitives" : [
                {
                    "attributes" : {
                        "POSITION" : 62,
                        "NORMAL" : 63,
                        "TEXCOORD_0" : 64
                    },
                    "indices" : 65
                }
            ]
        }
    ],
    "accessors" : [
        {
            "bufferView" : 0,
            "componentType" : 5126,
            "count" : 24,
            "max" : [
                1,
                1.100000023841858,
                1
            ],
            "min" : [
                -1,
                0,
                -1
            ],
            "type" : "VEC3"
        },
        {
            "bufferView" : 1,
            "componentType" : 5126,
            "count" : 24,
            "type" : "VEC3"
        },
        {
            "bufferView" : 2,
            "componentType" : 5126,
            "count" : 24,
            "type" : "VEC2"
        },
        {
            "bufferView" : 3,
            "componentType" : 5123,
            "count" : 36,
            "type" : "SCALAR"
        },
        {
            "bufferView" : 4,
            "componentType" : 5126,
            "count" : 24,
            "max" : [
                1,
                1.100000023841858,
                1
            ],
            "min" : [
                -1,
                0,
                -1
            ],
            "type" : "VEC3"
        },
        {
            "bufferView" : 5,
            "componentType" : 5126,
            "count" : 24,
            "type" : "VEC3"
        },
        {
            "bufferView" : 6,
            "componentType" : 5126,
            "count" : 24,
            "type" : "VEC2"
        },
        {
            "bufferView" : 7,
            "componentType" : 5126,
            "count" : 24,
            "max" : [
                1,
                1.100000023841858,
                1
            ],
            "min" : [
                -1,
                0,
                -1
            ],
            "type" : "VEC3"
        },
        {
            "bufferView" : 8,
            "componentType" : 5126,
            "count" : 24,
            "type" : "VEC3"
        },
        {
            "bufferView" : 9,
            "componentType" : 5126,
            "count" : 24,
            "type" : "VEC2"
        },
        {
            "bufferView" : 10,
            "componentType" : 5126,
            "count" : 24,
            "max" : [
                1,
                1.100000023841858,
                1
            ],
            "min" : [
                -1,
                0,
                -1
            ],
            "type" : "VEC3"
        },
        {
            "bufferView" : 11,
            "componentType" : 5126,
            "count" : 24,
            "type" : "VEC3"
        },
        {
            "bufferView" : 12,
            "componentType" : 5126,
            "count" : 24,
            "type" : "VEC2"
        },
        {
            "bufferView" : 13,
            "componentType" : 5126,
            "count" : 24,
            "max" : [
                1,
                1.100000023841858,
                1
            ],
            "min" : [
                -1,
                0,
                -1
            ],
            "type" : "VEC3"
        },
        {
            "bufferView" : 14,
            "componentType" : 5126,
            "count" : 24,
            "type" : "VEC3"
        },
        {
            "bufferView" : 15,
            "componentType" : 5126,
            "count" : 24,
            "type" : "VEC2"
        },
        {
            "bufferView" : 16,
            "componentType" : 5126,
            "count" : 24,
            "max" : [
                1,
                0.3999999761581421,
                1
            ],
            "min" : [
                -1,
                0,
                -1
            ],
            "type" : "VEC3"
        },
        {
            "bufferView" : 17,
            "componentType" : 5126,
            "count" : 24,
            "type" : "VEC3"
        },
        {
            "bufferView" : 18,
            "componentType" : 5126,
            "count" : 24,
            "type" : "VEC2"
        },
        {
            "bufferView" : 19,
            "componentType" : 5126,
            "count" : 24,
            "max" : [
                1,
                0.3999999761581421,
                1
            ],
            "min" : [
                -1,
                0,
                -1
            ],
            "type" : "VEC3"
        },
        {
            "bufferView" : 20,
            "componentType" : 5126,
            "count" : 24,
            "type" : "VEC3"
        },
        {
            "bufferView" : 21,
            "componentType" : 5126,
            "count" : 24,
            "type" : "VEC2"
        },
        {
            "bufferView" : 22,
            "componentType" : 5126,
            "count" : 421,
            "max" : [
                15.941169738769531,
                2.8989431858062744,
                -4.61970329284668
            ],
            "min" : [
                9.187816619873047,
                -2.0898189544677734,
                -7.969313144683838
            ],
            "type" : "VEC3"
        },
        {
            "bufferView" : 23,
            "componentType" : 5126,
            "count" : 421,
            "type" : "VEC3"
        },
        {
            "bufferView" : 24,
            "componentType" : 5126,
            "count" : 421,
            "type" : "VEC2"
        },
        {
            "bufferView" : 25,
            "componentType" : 5123,
            "count" : 738,
            "type" : "SCALAR"
        },
        {
            "bufferView" : 26,
            "componentType" : 5126,
            "count" : 24,
            "max" : [
                1,
                6,
                1
            ],
            "min" : [
                -1,
                -2.4000000953674316,
                -1
            ],
            "type" : "VEC3"
        },
        {
            "bufferView" : 27,
            "componentType" : 5126,
            "count" : 24,
            "type" : "VEC3"
        },
        {
            "bufferView" : 28,
            "componentType" : 5126,
            "count" : 24,
            "type" : "VEC2"
        },
        {
            "bufferView" : 29,
            "componentType" : 5123,
            "count" : 36,
            "type" : "SCALAR"
        },
        {
            "bufferView" : 30,
            "componentType" : 5126,
            "count" : 24,
            "max" : [
                1,
                1.100000023841858,
                1
            ],
            "min" : [
                -1,
                0,
                -1
            ],
            "type" : "VEC3"
        },
        {
            "bufferView" : 31,
            "componentType" : 5126,
            "count" : 24,
            "type" : "VEC3"
        },
        {
            "bufferView" : 32,
            "componentType" : 5126,
            "count" : 24,
            "type" : "VEC2"
        },
        {
            "bufferView" : 33,
            "componentType" : 5126,
            "count" : 24,
            "max" : [
                1,
                1.100000023841858,
                1
            ],
            "min" : [
                -1,
                0,
                -1
            ],
            "type" : "VEC3"
        },
        {
            "bufferView" : 34,
            "componentType" : 5126,
            "count" : 24,
            "type" : "VEC3"
        },
        {
            "bufferView" : 35,
            "componentType" : 5126,
            "count" : 24,
            "type" : "VEC2"
        },
        {
            "bufferView" : 36,
            "componentType" : 5126,
            "count" : 24,
            "max" : [
                1,
                1.100000023841858,
                1
            ],
            "min" : [
                -1,
                0,
                -1
            ],
            "type" : "VEC3"
        },
        {
            "bufferView" : 37,
            "componentType" : 5126,
            "count" : 24,
            "type" : "VEC3"
        },
        {
            "bufferView" : 38,
            "componentType" : 5126,
            "count" : 24,
            "type" : "VEC2"
        },
        {
            "bufferView" : 39,
            "componentType" : 5126,
            "count" : 24,
            "max" : [
                1,
                6,
                1
            ],
            "min" : [
                -1,
                -2.4000000953674316,
                -1
            ],
            "type" : "VEC3"
        },
        {
            "bufferView" : 40,
            "componentType" : 5126,
            "count" : 24,
            "type" : "VEC3"
        },
        {
            "bufferView" : 41,
            "componentType" : 5126,
            "count" : 24,
            "type" : "VEC2"
        },
        {
            "bufferView" : 42,
            "componentType" : 5126,
            "count" : 24,
            "max" : [
                1,
                6,
                1
            ],
            "min" : [
                -1,
                -2.4000000953674316,
                -1
            ],
            "type" : "VEC3"
        },
        {
            "bufferView" : 43,
            "componentType" : 5126,
            "count" : 24,
            "type" : "VEC3"
        },
        {
            "bufferView" : 44,
            "componentType" : 5126,
            "count" : 24,
            "type" : "VEC2"
        },
        {
            "bufferView" : 45,
            "componentType" : 5126,
            "count" : 24,
            "max" : [
                1,
                6,
                1
            ],
            "min" : [
                -1,
                -2.4000000953674316,
                -1
            ],
            "type" : "VEC3"
        },
        {
            "bufferView" : 46,
            "componentType" : 5126,
            "count" : 24,
            "type" : "VEC3"
        },
        {
            "bufferView" : 47,
            "componentType" : 5126,
            "count" : 24,
            "type" : "VEC2"
        },
        {
            "bufferView" : 48,
            "componentType" : 5126,
            "count" : 24,
            "max" : [
                1,
                6,
                1
            ],
            "min" : [
                -1,
                -2.4000000953674316,
                -1
            ],
            "type" : "VEC3"
        },
        {
            "bufferView" : 49,
            "componentType" : 5126,
            "count" : 24,
            "type" : "VEC3"
        },
        {
            "bufferView" : 50,
            "componentType" : 5126,
            "count" : 24,
            "type" : "VEC2"
        },
        {
            "bufferView" : 51,
            "componentType" : 5126,
            "count" : 24,
            "max" : [
                1,
                6,
                1
            ],
            "min" : [
                -1,
                -2.4000000953674316,
                -1
            ],
            "type" : "VEC3"
        },
        {
            "bufferView" : 52,
            "componentType" : 5126,
            "count" : 24,
            "type" : "VEC3"
        },
        {
            "bufferView" : 53,
            "componentType" : 5126,
            "count" : 24,
            "type" : "VEC2"
        },
        {
            "bufferView" : 54,
            "componentType" : 5126,
            "count" : 88,
            "max" : [
                0.06630325317382812,
                2.1837549209594727,
                5.333333492279053
            ],
            "min" : [
                -1,
                -8.135121021268787e-09,
                -5.333333492279053
            ],
            "type" : "VEC3"
        },
        {
            "bufferView" : 55,
            "componentType" : 5126,
            "count" : 88,
            "type" : "VEC3"
        },
        {
            "bufferView" : 56,
            "componentType" : 5126,
            "count" : 88,
            "type" : "VEC2"
        },
        {
            "bufferView" : 57,
            "componentType" : 5123,
            "count" : 132,
            "type" : "SCALAR"
        },
        {
            "bufferView" : 58,
            "componentType" : 5126,
            "count" : 1178,
            "max" : [
                0.18024444580078125,
                3.019979476928711,
                0.4199998378753662
            ],
            "min" : [
                -0.18024444580078125,
                -0.019999980926513672,
                -0.4200000762939453
            ],
            "type" : "VEC3"
        },
        {
            "bufferView" : 59,
            "componentType" : 5126,
            "count" : 1178,
            "type" : "VEC3"
        },
        {
            "bufferView" : 60,
            "componentType" : 5126,
            "count" : 1178,
            "type" : "VEC2"
        },
        {
            "bufferView" : 61,
            "componentType" : 5123,
            "count" : 1920,
            "type" : "SCALAR"
        },
        {
            "bufferView" : 62,
            "componentType" : 5126,
            "count" : 254,
            "max" : [
                1.9000000953674316,
                2.0830116271972656,
                2
            ],
            "min" : [
                -4.300000190734863,
                -2.1000001430511475,
                -1.7461601495742798
            ],
            "type" : "VEC3"
        },
        {
            "bufferView" : 63,
            "componentType" : 5126,
            "count" : 254,
            "type" : "VEC3"
        },
        {
            "bufferView" : 64,
            "componentType" : 5126,
            "count" : 254,
            "type" : "VEC2"
        },
        {
            "bufferView" : 65,
            "componentType" : 5123,
            "count" : 444,
            "type" : "SCALAR"
        }
    ],
    "bufferViews" : [
        {
            "buffer" : 0,
            "byteLength" : 288,
            "byteOffset" : 0,
            "target" : 34962
        },
        {
            "buffer" : 0,
            "byteLength" : 288,
            "byteOffset" : 288,
            "target" : 34962
        },
        {
            "buffer" : 0,
            "byteLength" : 192,
            "byteOffset" : 576,
            "target" : 34962
        },
        {
            "buffer" : 0,
            "byteLength" : 72,
            "byteOffset" : 768,
            "target" : 34963
        },
        {
            "buffer" : 0,
            "byteLength" : 288,
            "byteOffset" : 840,
            "target" : 34962
        },
        {
            "buffer" : 0,
            "byteLength" : 288,
            "byteOffset" : 1128,
            "target" : 34962
        },
        {
            "buffer" : 0,
            "byteLength" : 192,
            "byteOffset" : 1416,
            "target" : 34962
        },
        {
            "buffer" : 0,
            "byteLength" : 288,
            "byteOffset" : 1608,
            "target" : 34962
        },
        {
            "buffer" : 0,
            "byteLength" : 288,
            "byteOffset" : 1896,
            "target" : 34962
        },
        {
            "buffer" : 0,
            "byteLength" : 192,
            "byteOffset" : 2184,
            "target" : 34962
        },
        {
            "buffer" : 0,
            "byteLength" : 288,
            "byteOffset" : 2376,
            "target" : 34962
        },
        {
            "buffer" : 0,
            "byteLength" : 288,
            "byteOffset" : 2664,
            "target" : 34962
        },
        {
            "buffer" : 0,
            "byteLength" : 192,
            "byteOffset" : 2952,
            "target" : 34962
        },
        {
            "buffer" : 0,
            "byteLength" : 288,
            "byteOffset" : 3144,
            "target" : 34962
        },
        {
            "buffer" : 0,
            "byteLength" : 288,
            "byteOffset" : 3432,
            "target" : 34962
        },
        {
            "buffer" : 0,
            "byteLength" : 192,
            "byteOffset" : 3720,
            "target" : 34962
        },
        {
            "buffer" : 0,
            "byteLength" : 288,
            "byteOffset" : 3912,
            "target" : 34962
        },
        {
            "buffer" : 0,
            "byteLength" : 288,
            "byteOffset" : 4200,
            "target" : 34962
        },
        {
            "buffer" : 0,
            "byteLength" : 192,
            "byteOffset" : 4488,
            "target" : 34962
        },
        {
            "buffer" : 0,
            "byteLength" : 288,
            "byteOffset" : 4680,
            "target" : 34962
        },
        {
            "buffer" : 0,
            "byteLength" : 288,
            "byteOffset" : 4968,
            "target" : 34962
        },
        {
            "buffer" : 0,
            "byteLength" : 192,
            "byteOffset" : 5256,
            "target" : 34962
        },
        {
            "buffer" : 0,
            "byteLength" : 5052,
            "byteOffset" : 5448,
            "target" : 34962
        },
        {
            "buffer" : 0,
            "byteLength" : 5052,
            "byteOffset" : 10500,
            "target" : 34962
        },
        {
            "buffer" : 0,
            "byteLength" : 3368,
            "byteOffset" : 15552,
            "target" : 34962
        },
        {
            "buffer" : 0,
            "byteLength" : 1476,
            "byteOffset" : 18920,
            "target" : 34963
        },
        {
            "buffer" : 0,
            "byteLength" : 288,
            "byteOffset" : 20396,
            "target" : 34962
        },
        {
            "buffer" : 0,
            "byteLength" : 288,
            "byteOffset" : 20684,
            "target" : 34962
        },
        {
            "buffer" : 0,
            "byteLength" : 192,
            "byteOffset" : 20972,
            "target" : 34962
        },
        {
            "buffer" : 0,
            "byteLength" : 72,
            "byteOffset" : 21164,
            "target" : 34963
        },
        {
            "buffer" : 0,
            "byteLength" : 288,
            "byteOffset" : 21236,
            "target" : 34962
        },
        {
            "buffer" : 0,
            "byteLength" : 288,
            "byteOffset" : 21524,
            "target" : 34962
        },
        {
            "buffer" : 0,
            "byteLength" : 192,
            "byteOffset" : 21812,
            "target" : 34962
        },
        {
            "buffer" : 0,
            "byteLength" : 288,
            "byteOffset" : 22004,
            "target" : 34962
        },
        {
            "buffer" : 0,
            "byteLength" : 288,
            "byteOffset" : 22292,
            "target" : 34962
        },
        {
            "buffer" : 0,
            "byteLength" : 192,
            "byteOffset" : 22580,
            "target" : 34962
        },
        {
            "buffer" : 0,
            "byteLength" : 288,
            "byteOffset" : 22772,
            "target" : 34962
        },
        {
            "buffer" : 0,
            "byteLength" : 288,
            "byteOffset" : 23060,
            "target" : 34962
        },
        {
            "buffer" : 0,
            "byteLength" : 192,
            "byteOffset" : 23348,
            "target" : 34962
        },
        {
            "buffer" : 0,
            "byteLength" : 288,
            "byteOffset" : 23540,
            "target" : 34962
        },
        {
            "buffer" : 0,
            "byteLength" : 288,
            "byteOffset" : 23828,
            "target" : 34962
        },
        {
            "buffer" : 0,
            "byteLength" : 192,
            "byteOffset" : 24116,
            "target" : 34962
        },
        {
            "buffer" : 0,
            "byteLength" : 288,
            "byteOffset" : 24308,
            "target" : 34962
        },
        {
            "buffer" : 0,
            "byteLength" : 288,
            "byteOffset" : 24596,
            "target" : 34962
        },
        {
            "buffer" : 0,
            "byteLength" : 192,
            "byteOffset" : 24884,
            "target" : 34962
        },
        {
            "buffer" : 0,
            "byteLength" : 288,
            "byteOffset" : 25076,
            "target" : 34962
        },
        {
            "buffer" : 0,
            "byteLength" : 288,
            "byteOffset" : 25364,
            "target" : 34962
        },
        {
            "buffer" : 0,
            "byteLength" : 192,
            "byteOffset" : 25652,
            "target" : 34962
        },
        {
            "buffer" : 0,
            "byteLength" : 288,
            "byteOffset" : 25844,
            "target" : 34962
        },
        {
            "buffer" : 0,
            "byteLength" : 288,
            "byteOffset" : 26132,
            "target" : 34962
        },
        {
            "buffer" : 0,
            "byteLength" : 192,
            "byteOffset" : 26420,
            "target" : 34962
        },
        {
            "buffer" : 0,
            "byteLength" : 288,
            "byteOffset" : 26612,
            "target" : 34962
        },
        {
            "buffer" : 0,
            "byteLength" : 288,
            "byteOffset" : 26900,
            "target" : 34962
        },
        {
            "buffer" : 0,
            "byteLength" : 192,
            "byteOffset" : 27188,
            "target" : 34962
        },
        {
            "buffer" : 0,
            "byteLength" : 1056,
            "byteOffset" : 27380,
            "target" : 34962
        },
        {
            "buffer" : 0,
            "byteLength" : 1056,
            "byteOffset" : 28436,
            "target" : 34962
        },
        {
            "buffer" : 0,
            "byteLength" : 704,
            "byteOffset" : 29492,
            "target" : 34962
        },
        {
            "buffer" : 0,
            "byteLength" : 264,
            "byteOffset" : 30196,
            "target" : 34963
        },
        {
            "buffer" : 0,
            "byteLength" : 14136,
            "byteOffset" : 30460,
            "target" : 34962
        },
        {
            "buffer" : 0,
            "byteLength" : 14136,
            "byteOffset" : 44596,
            "target" : 34962
        },
        {
            "buffer" : 0,
            "byteLength" : 9424,
            "byteOffset" : 58732,
            "target" : 34962
        },
        {
            "buffer" : 0,
            "byteLength" : 3840,
            "byteOffset" : 68156,
            "target" : 34963
        },
        {
            "buffer" : 0,
            "byteLength" : 3048,
            "byteOffset" : 71996,
            "target" : 34962
        },
        {
            "buffer" : 0,
            "byteLength" : 3048,
            "byteOffset" : 75044,
            "target" : 34962
        },
        {
            "buffer" : 0,
            "byteLength" : 2032,
            "byteOffset" : 78092,
            "target" : 34962
        },
        {
            "buffer" : 0,
            "byteLength" : 888,
            "byteOffset" : 80124,
            "target" : 34963
        }
    ],
    "buffers" : [
        {
            "byteLength" : 81012,
            "uri" : "data:application/octet-stream;base64,"
        }
    ]
}
