{
    "asset" : {
        "copyright" : "K-ro",
        "generator" : "Khronos glTF Blender I/O v3.3.36",
        "version" : "2.0"
    },
    "scene" : 0,
    "scenes" : [
        {
            "name" : "Scene",
            "nodes" : [
                0
            ]
        }
    ],
    "nodes" : [
        {
            "mesh" : 0,
            "name" : "Tile_Small04",
            "translation" : [
                -0.4213046133518219,
                0,
                0.13207557797431946
            ]
        }
    ],
    "meshes" : [
        {
            "name" : "Tile_Small04",
            "primitives" : [
                {
                    "attributes" : {
                        "POSITION" : 0,
                        "NORMAL" : 1,
                        "TEXCOORD_0" : 2
                    },
                    "indices" : 3
                }
            ]
        }
    ],
    "accessors" : [
        {
            "bufferView" : 0,
            "componentType" : 5126,
            "count" : 409,
            "max" : [
                0.125,
                0,
                0.12551268935203552
            ],
            "min" : [
                -0.125,
                -0.014999999664723873,
                -0.12448730319738388
            ],
            "type" : "VEC3"
        },
        {
            "bufferView" : 1,
            "componentType" : 5126,
            "count" : 409,
            "type" : "VEC3"
        },
        {
            "bufferView" : 2,
            "componentType" : 5126,
            "count" : 409,
            "type" : "VEC2"
        },
        {
            "bufferView" : 3,
            "componentType" : 5123,
            "count" : 690,
            "type" : "SCALAR"
        }
    ],
    "bufferViews" : [
        {
            "buffer" : 0,
            "byteLength" : 4908,
            "byteOffset" : 0,
            "target" : 34962
        },
        {
            "buffer" : 0,
            "byteLength" : 4908,
            "byteOffset" : 4908,
            "target" : 34962
        },
        {
            "buffer" : 0,
            "byteLength" : 3272,
            "byteOffset" : 9816,
            "target" : 34962
        },
        {
            "buffer" : 0,
            "byteLength" : 1380,
            "byteOffset" : 13088,
            "target" : 34963
        }
    ],
    "buffers" : [
        {
            "byteLength" : 14468,
            "uri" : "data:application/octet-stream;base64,"
        }
    ]
}
