{
    "asset" : {
        "copyright" : "K-ro",
        "generator" : "Khronos glTF Blender I/O v3.3.36",
        "version" : "2.0"
    },
    "scene" : 0,
    "scenes" : [
        {
            "name" : "Scene",
            "nodes" : [
                0
            ]
        }
    ],
    "nodes" : [
        {
            "mesh" : 0,
            "name" : "Tile_Small03",
            "translation" : [
                -0.40889307856559753,
                0,
                0.4189966320991516
            ]
        }
    ],
    "meshes" : [
        {
            "name" : "Tile_Small03",
            "primitives" : [
                {
                    "attributes" : {
                        "POSITION" : 0,
                        "NORMAL" : 1,
                        "TEXCOORD_0" : 2
                    },
                    "indices" : 3
                }
            ]
        }
    ],
    "accessors" : [
        {
            "bufferView" : 0,
            "componentType" : 5126,
            "count" : 139,
            "max" : [
                0.125,
                0,
                0.12770958244800568
            ],
            "min" : [
                -0.125,
                -0.014999999664723873,
                -0.12229041010141373
            ],
            "type" : "VEC3"
        },
        {
            "bufferView" : 1,
            "componentType" : 5126,
            "count" : 139,
            "type" : "VEC3"
        },
        {
            "bufferView" : 2,
            "componentType" : 5126,
            "count" : 139,
            "type" : "VEC2"
        },
        {
            "bufferView" : 3,
            "componentType" : 5123,
            "count" : 240,
            "type" : "SCALAR"
        }
    ],
    "bufferViews" : [
        {
            "buffer" : 0,
            "byteLength" : 1668,
            "byteOffset" : 0,
            "target" : 34962
        },
        {
            "buffer" : 0,
            "byteLength" : 1668,
            "byteOffset" : 1668,
            "target" : 34962
        },
        {
            "buffer" : 0,
            "byteLength" : 1112,
            "byteOffset" : 3336,
            "target" : 34962
        },
        {
            "buffer" : 0,
            "byteLength" : 480,
            "byteOffset" : 4448,
            "target" : 34963
        }
    ],
    "buffers" : [
        {
            "byteLength" : 4928,
            "uri" : "data:application/octet-stream;base64,"
        }
    ]
}
