{
    "asset" : {
        "copyright" : "K-ro",
        "generator" : "Khronos glTF Blender I/O v3.3.36",
        "version" : "2.0"
    },
    "scene" : 0,
    "scenes" : [
        {
            "name" : "Scene",
            "nodes" : [
                0
            ]
        }
    ],
    "nodes" : [
        {
            "mesh" : 0,
            "name" : "Tile_Half01",
            "translation" : [
                0,
                0,
                -0.40641796588897705
            ]
        }
    ],
    "meshes" : [
        {
            "name" : "Tile_Half01",
            "primitives" : [
                {
                    "attributes" : {
                        "POSITION" : 0,
                        "NORMAL" : 1,
                        "TEXCOORD_0" : 2
                    },
                    "indices" : 3
                }
            ]
        }
    ],
    "accessors" : [
        {
            "bufferView" : 0,
            "componentType" : 5126,
            "count" : 187,
            "max" : [
                0.25,
                0,
                0.125
            ],
            "min" : [
                -0.25,
                -0.015006697736680508,
                -0.125
            ],
            "type" : "VEC3"
        },
        {
            "bufferView" : 1,
            "componentType" : 5126,
            "count" : 187,
            "type" : "VEC3"
        },
        {
            "bufferView" : 2,
            "componentType" : 5126,
            "count" : 187,
            "type" : "VEC2"
        },
        {
            "bufferView" : 3,
            "componentType" : 5123,
            "count" : 318,
            "type" : "SCALAR"
        }
    ],
    "bufferViews" : [
        {
            "buffer" : 0,
            "byteLength" : 2244,
            "byteOffset" : 0,
            "target" : 34962
        },
        {
            "buffer" : 0,
            "byteLength" : 2244,
            "byteOffset" : 2244,
            "target" : 34962
        },
        {
            "buffer" : 0,
            "byteLength" : 1496,
            "byteOffset" : 4488,
            "target" : 34962
        },
        {
            "buffer" : 0,
            "byteLength" : 636,
            "byteOffset" : 5984,
            "target" : 34963
        }
    ],
    "buffers" : [
        {
            "byteLength" : 6620,
            "uri" : "data:application/octet-stream;base64,"
        }
    ]
}
