{
    "asset" : {
        "copyright" : "K-ro",
        "generator" : "Khronos glTF Blender I/O v3.3.36",
        "version" : "2.0"
    },
    "scene" : 0,
    "scenes" : [
        {
            "name" : "Scene",
            "nodes" : [
                0
            ]
        }
    ],
    "nodes" : [
        {
            "mesh" : 0,
            "name" : "Tile_Half04",
            "translation" : [
                0.5297994017601013,
                0,
                -0.6651008129119873
            ]
        }
    ],
    "meshes" : [
        {
            "name" : "Tile_Half04",
            "primitives" : [
                {
                    "attributes" : {
                        "POSITION" : 0,
                        "NORMAL" : 1,
                        "TEXCOORD_0" : 2
                    },
                    "indices" : 3
                }
            ]
        }
    ],
    "accessors" : [
        {
            "bufferView" : 0,
            "componentType" : 5126,
            "count" : 211,
            "max" : [
                0.2540862560272217,
                0,
                0.125
            ],
            "min" : [
                -0.24591374397277832,
                -0.014999999664723873,
                -0.125
            ],
            "type" : "VEC3"
        },
        {
            "bufferView" : 1,
            "componentType" : 5126,
            "count" : 211,
            "type" : "VEC3"
        },
        {
            "bufferView" : 2,
            "componentType" : 5126,
            "count" : 211,
            "type" : "VEC2"
        },
        {
            "bufferView" : 3,
            "componentType" : 5123,
            "count" : 396,
            "type" : "SCALAR"
        }
    ],
    "bufferViews" : [
        {
            "buffer" : 0,
            "byteLength" : 2532,
            "byteOffset" : 0,
            "target" : 34962
        },
        {
            "buffer" : 0,
            "byteLength" : 2532,
            "byteOffset" : 2532,
            "target" : 34962
        },
        {
            "buffer" : 0,
            "byteLength" : 1688,
            "byteOffset" : 5064,
            "target" : 34962
        },
        {
            "buffer" : 0,
            "byteLength" : 792,
            "byteOffset" : 6752,
            "target" : 34963
        }
    ],
    "buffers" : [
        {
            "byteLength" : 7544,
            "uri" : "data:application/octet-stream;base64,"
        }
    ]
}
