{
    "asset" : {
        "copyright" : "K-ro",
        "generator" : "Khronos glTF Blender I/O v3.3.36",
        "version" : "2.0"
    },
    "scene" : 0,
    "scenes" : [
        {
            "name" : "Scene",
            "nodes" : [
                0
            ]
        }
    ],
    "nodes" : [
        {
            "mesh" : 0,
            "name" : "Title"
        }
    ],
    "meshes" : [
        {
            "name" : "Title",
            "primitives" : [
                {
                    "attributes" : {
                        "POSITION" : 0,
                        "NORMAL" : 1,
                        "TEXCOORD_0" : 2
                    },
                    "indices" : 3
                }
            ]
        }
    ],
    "accessors" : [
        {
            "bufferView" : 0,
            "componentType" : 5126,
            "count" : 5019,
            "max" : [
                1.1703789234161377,
                1.3917770385742188,
                0.00016383023466914892
            ],
            "min" : [
                -1.0900380611419678,
                0.0028120875358581543,
                -0.2006194293498993
            ],
            "type" : "VEC3"
        },
        {
            "bufferView" : 1,
            "componentType" : 5126,
            "count" : 5019,
            "type" : "VEC3"
        },
        {
            "bufferView" : 2,
            "componentType" : 5126,
            "count" : 5019,
            "type" : "VEC2"
        },
        {
            "bufferView" : 3,
            "componentType" : 5123,
            "count" : 8478,
            "type" : "SCALAR"
        }
    ],
    "bufferViews" : [
        {
            "buffer" : 0,
            "byteLength" : 60228,
            "byteOffset" : 0,
            "target" : 34962
        },
        {
            "buffer" : 0,
            "byteLength" : 60228,
            "byteOffset" : 60228,
            "target" : 34962
        },
        {
            "buffer" : 0,
            "byteLength" : 40152,
            "byteOffset" : 120456,
            "target" : 34962
        },
        {
            "buffer" : 0,
            "byteLength" : 16956,
            "byteOffset" : 160608,
            "target" : 34963
        }
    ],
    "buffers" : [
        {
            "byteLength" : 177564,
            "uri" : "data:application/octet-stream;base64,"
        }
    ]
}
